<svg width="128" height="128" viewBox="0 0 128 128" fill="none" xmlns="http://www.w3.org/2000/svg">
<g clip-path="url(#clip0_54617_115)">
<g clip-path="url(#clip1_54617_115)">
<g style="mix-blend-mode:color-dodge" opacity="0.25">
<path d="M128 63.2441C128 97.6187 99.3467 125.486 64.001 125.486C28.6553 125.486 0 97.6193 0 63.2441C0 28.8676 28.6546 1 64.001 1C99.3473 1 128 28.8676 128 63.2441Z" fill="white"/>
<path d="M128 63.2441C128 97.6187 99.3467 125.486 64.001 125.486C28.6553 125.486 0 97.6193 0 63.2441C0 28.8676 28.6546 1 64.001 1C99.3473 1 128 28.8676 128 63.2441Z" stroke="#CCCCCC" stroke-width="0.75"/>
</g>
<path d="M59.3025 122.362C58.9848 122.315 58.7124 122.161 58.6929 122.027C58.6759 121.89 58.6533 121.683 58.6394 121.565C58.6054 121.276 57.1358 120 56.1713 119.422C55.6844 119.133 55.2943 118.688 55.1345 118.244C54.9904 117.851 54.7967 117.529 54.7042 117.529C54.6136 117.529 54.54 117.395 54.54 117.23C54.54 117.064 54.3405 116.793 54.0977 116.621C53.8567 116.455 53.7183 116.217 53.7951 116.095C53.8813 115.958 53.8089 115.921 53.6076 115.996C53.3698 116.088 53.2836 115.983 53.2836 115.617C53.2836 115.301 52.9225 114.742 52.3172 114.112C51.3188 113.085 50.8904 111.823 51.3421 111.254C51.4572 111.111 51.6107 110.74 51.6875 110.428C51.763 110.118 52.1071 109.655 52.4494 109.402C53.193 108.859 53.2144 108.658 52.6337 107.684C52.3908 107.276 52.248 106.803 52.3172 106.625C52.3846 106.451 52.0517 105.514 51.5755 104.549C50.9331 103.238 50.4128 102.519 49.5358 101.725C48.4776 100.769 47.4163 99.3232 47.4163 98.8352C47.4163 98.736 47.5591 98.6494 47.7308 98.6494C47.9441 98.6494 48.0473 98.4331 48.0517 97.9769C48.0561 97.6054 48.1958 97.1217 48.3663 96.8991C48.913 96.1811 48.5902 94.7088 48.0102 95.2798C47.8674 95.4238 47.6296 95.5385 47.4773 95.5385C47.0916 95.5385 47.1395 94.9295 47.539 94.7786C48.1454 94.5474 47.3898 94.2993 46.0555 94.2937C45.364 94.2906 44.6928 94.2177 44.5638 94.1354C44.4348 94.0481 44.08 93.4965 43.7805 92.9037C43.3011 91.9619 43.1275 91.8048 42.4411 91.677C41.3873 91.4813 40.0944 91.4838 38.2001 91.6851C36.7273 91.8435 36.5612 91.8173 35.581 91.2968C34.77 90.868 34.1296 90.7153 32.753 90.6261C30.7146 90.4903 30.5441 90.3837 28.7133 88.0693C28.1251 87.3282 27.2141 86.3296 26.6907 85.8478C26.0653 85.2725 25.8168 84.9178 25.9703 84.81C26.3453 84.5513 26.0609 83.4051 25.4544 82.7294C25.1487 82.3884 24.7787 81.9353 24.634 81.7221C24.4881 81.5046 24.1779 81.0483 23.9445 80.7086C23.6299 80.2461 23.5607 79.9264 23.6727 79.4639C23.757 79.1198 23.8338 78.3762 23.8388 77.8052C23.8464 77.1433 23.9709 76.6577 24.1829 76.457C24.624 76.0431 25.0568 75.0053 24.7894 75.0053C24.6774 75.0053 24.585 74.7254 24.585 74.3814C24.585 74.0404 24.6661 73.7605 24.7662 73.7605C24.8662 73.7605 24.9367 73.9239 24.9241 74.1227C24.8674 74.9386 25.2852 74.6251 25.3619 73.793C25.4186 73.1915 25.3726 72.9359 25.2254 73.0288C24.9461 73.1977 24.9429 73.2432 25.3173 71.4798C25.5721 70.2756 25.7979 69.81 26.5233 68.976C27.0134 68.4119 27.5784 67.9002 27.7797 67.8366C27.9823 67.7724 28.1452 67.5841 28.1452 67.4134C28.1452 66.8623 28.7813 66.1362 29.3676 66.0209C29.6935 65.956 30.0698 65.6756 30.2308 65.3789C30.4535 64.9681 30.6253 64.8783 31.0047 64.9712C31.3073 65.0491 31.4979 65.0036 31.4979 64.8553C31.4979 64.7244 31.6149 64.6346 31.759 64.6596C31.9031 64.682 32.1629 64.6415 32.3353 64.5686C32.507 64.4969 32.8958 64.3504 33.1953 64.2413C33.6162 64.0892 33.7716 63.858 33.8729 63.2459C34.0497 62.1426 35.3073 60.8748 36.5467 60.5494C37.7219 60.2421 38.5989 59.1663 38.4542 58.2045C38.3913 57.7738 38.2441 57.5819 37.978 57.5819C37.7679 57.5819 37.5389 57.4877 37.4678 57.3749C37.3954 57.2608 37.1557 57.1667 36.9305 57.1667C36.4479 57.1667 36.4297 56.9991 36.8462 56.4499C37.0431 56.1925 37.1104 55.8135 37.0337 55.409C36.9387 54.9022 37.0444 54.6055 37.5527 53.9723C38.2177 53.1445 38.614 52.0749 38.6172 51.1081C38.6184 50.6244 38.7399 50.5129 39.4772 50.3153C40.19 50.1264 40.397 50.142 40.6965 50.4113C40.8959 50.5895 41.1985 50.7354 41.3678 50.7354C41.5383 50.7354 41.7685 50.8295 41.8824 50.9411C41.9944 51.052 42.5568 51.2864 43.1281 51.4584C44.1265 51.7595 44.185 51.7551 44.5292 51.3456C44.7274 51.11 44.9513 50.5951 45.0237 50.2043C45.1816 49.3734 44.9715 48.0421 44.6827 48.0421C44.5738 48.0421 44.4832 47.9124 44.4832 47.7516C44.4832 47.592 44.3417 47.4094 44.1687 47.3421C43.9856 47.2723 43.8554 46.9619 43.8554 46.5947C43.8554 46.0013 43.9013 45.9664 44.6758 45.9664C45.1287 45.9664 45.5496 46.0836 45.6176 46.2263C45.6836 46.3691 45.6792 46.26 45.61 45.9876C45.51 45.5949 45.5534 45.5158 45.8082 45.613C45.9863 45.6816 46.1706 45.6255 46.2215 45.4883C46.2813 45.3182 46.443 45.3562 46.7362 45.6161C47.142 45.972 47.2049 45.9739 47.9712 45.6404L48.779 45.2876L48.0448 45.1063C47.6421 45.0071 46.6053 44.89 45.7409 44.8445C44.8758 44.8021 44.0038 44.7547 43.8038 44.7441C43.2357 44.7105 43.3722 44.3745 44.0114 44.233C44.3291 44.1632 44.7764 43.9606 45.0079 43.7842C45.3477 43.5224 45.3703 43.4295 45.1338 43.2837C44.7481 43.0493 44.9973 42.4422 45.4811 42.4422C45.7604 42.4422 45.8604 42.2883 45.8541 41.8731C45.8478 41.3726 45.9189 41.3103 46.421 41.3633C46.9312 41.415 46.9941 41.3558 46.974 40.844C46.9602 40.4912 46.9123 40.4071 46.8545 40.6265C46.8022 40.8272 46.6148 40.9887 46.438 40.9887C46.2398 40.9887 46.1618 40.8715 46.2335 40.6814C46.3335 40.4239 46.2857 40.4152 45.9416 40.6284C45.7157 40.7699 45.5301 41.079 45.5301 41.319C45.5301 41.5577 45.3659 41.8974 45.1633 42.072C44.7393 42.4385 42.996 42.7352 42.3863 42.5438C41.7629 42.3475 41.8365 41.4543 42.5002 41.1532C42.8167 41.0117 42.9884 40.7985 42.9224 40.6296C42.7582 40.2064 43.4383 39.2876 43.812 39.4273C43.9825 39.4939 44.297 39.3936 44.5065 39.2035C44.728 39.0059 45.0979 38.9037 45.3898 38.9585C45.7264 39.0227 45.9718 38.9249 46.1335 38.6724C46.2826 38.4368 46.2933 38.2922 46.1624 38.2922C45.7906 38.2922 45.9353 37.8783 46.3191 37.854C46.6676 37.8297 46.6676 37.8253 46.3191 37.7356C45.8258 37.6078 45.8567 37.3797 46.4468 36.7483C46.9539 36.2047 47.6277 36.0377 47.6277 36.4528C47.6277 36.6174 47.7183 36.6124 47.9315 36.4347C48.0989 36.2976 48.3417 36.2477 48.4688 36.3269C48.5946 36.4048 48.8866 36.3026 49.1112 36.1C49.4383 35.8064 49.5736 35.7852 49.778 35.9903C49.9838 36.1941 49.8932 36.3736 49.3528 36.8561C48.7645 37.3809 48.7274 37.4651 49.0904 37.4651C49.6466 37.4651 49.6466 38.1121 49.0904 38.6076C48.6053 39.0427 48.6601 39.7476 49.3238 41.5677C49.7787 42.8231 49.8504 44.2305 49.4603 44.3664C49.3163 44.4181 49.2609 44.526 49.3358 44.607C49.5692 44.8582 50.6733 44.1644 51.2678 43.3878C51.7825 42.7196 51.9328 42.6498 52.8608 42.6498C53.9914 42.6498 54.0266 42.6055 54.226 41.0123C54.3827 39.7769 54.5576 39.5289 55.4994 39.2091C56.1248 38.9947 56.3424 38.9897 56.467 39.1829C56.5608 39.3288 56.63 39.1524 56.63 38.7597C56.6344 38.0154 56.3349 37.8983 55.6793 38.3913C55.4554 38.559 54.9898 38.6986 54.6425 38.7017C53.7089 38.7111 53.4245 38.122 53.6044 36.5575C53.7995 34.8777 54.1285 34.298 55.154 33.8411C55.624 33.6311 56.0065 33.3861 56.0065 33.2976C56.0065 33.2066 56.338 33.0146 56.7438 32.8713C57.2402 32.693 57.7253 32.2567 58.2261 31.5349C58.6375 30.9458 59.2 30.3431 59.4793 30.1972C59.7574 30.0464 59.948 29.89 59.9002 29.8413C59.8524 29.794 59.6083 29.8656 59.3579 29.9978C59.1075 30.1299 58.8527 30.1898 58.791 30.1287C58.6249 29.9629 59.9858 28.7761 60.8628 28.3254C61.2868 28.1079 61.6907 27.8355 61.7643 27.7196C61.8367 27.6024 62.1726 27.5064 62.5124 27.5064C62.8502 27.5064 63.1283 27.4316 63.1283 27.3418C63.1283 27.0969 64.3784 26.7241 65.2541 26.7073C65.7889 26.6967 66.184 26.8457 66.5741 27.2047C66.8811 27.4865 67.2686 27.7146 67.4341 27.7146C67.6014 27.7146 67.738 27.8087 67.738 27.9228C67.738 28.0368 67.9236 28.1297 68.1526 28.1297C68.8943 28.1297 71.2523 29.2099 71.4952 29.6618C71.6317 29.9099 71.9601 30.1125 72.2633 30.1305C72.7515 30.1592 72.7654 30.1337 72.464 29.8033C72.2847 29.6057 72.1369 29.2891 72.1369 29.099C72.1369 28.907 72.04 28.7505 71.9261 28.7505C71.811 28.7505 71.716 28.6016 71.716 28.4171C71.716 28.1596 71.8726 28.1035 72.398 28.1796C72.771 28.2301 73.2429 28.3423 73.4423 28.4289C73.711 28.5448 74.0029 28.3647 74.5729 27.7395C75.0686 27.1904 75.5877 26.8463 76.0425 26.7609C77.387 26.5128 76.6006 25.6377 75.1731 25.796C74.6125 25.8584 74.0702 25.7761 73.6512 25.5604C73.0994 25.2787 72.9799 25.0767 72.8742 24.2409C72.805 23.6992 72.6943 23.0217 72.6295 22.7374C72.3747 21.5974 72.4898 21.0165 73.0523 20.6113C73.3543 20.3919 73.6053 20.074 73.6053 19.9039C73.6053 19.72 73.7538 19.624 73.9708 19.6682C74.2577 19.7243 74.3193 19.8995 74.2564 20.4624C74.2105 20.8582 74.1646 21.8667 74.1564 22.7069C74.14 24.052 74.1935 24.2789 74.6113 24.6136C75.2347 25.1129 77.0599 25.452 78.1105 25.2631L78.9492 25.111L78.3716 24.6149C78.0552 24.3394 77.7972 23.9298 77.7972 23.7017C77.7972 23.4736 77.6651 23.142 77.5053 22.9606C77.3442 22.7811 77.146 22.3167 77.063 21.9303C76.9189 21.2558 76.934 21.2346 77.4455 21.3612C77.9092 21.4752 77.9859 21.4204 78.0445 20.9261L78.1099 20.357L78.5798 20.8606C78.9624 21.267 79.0517 21.2976 79.0517 21.0127C79.0517 20.8208 78.9485 20.6624 78.8195 20.6624C78.683 20.6624 78.6258 20.4461 78.6862 20.1432C78.7397 19.8584 78.712 19.624 78.6226 19.624C78.532 19.624 78.3999 19.2282 78.3263 18.7426C78.057 16.9868 77.9759 16.763 77.5739 16.6577C76.9995 16.5087 77.0517 15.8935 77.6387 15.8847C78.0967 15.8773 78.0973 15.871 77.689 15.6441C77.4606 15.5145 77.2008 15.3063 77.1177 15.1829C77.012 15.0264 76.963 15.0246 76.9598 15.1785C76.9567 15.3001 76.3527 15.5195 75.6172 15.6641C74.2055 15.9427 73.7525 15.8467 73.1699 15.1424C72.895 14.8139 72.929 14.7952 73.5877 14.923C74.084 15.0221 74.4571 14.9641 74.812 14.7341C75.1158 14.5365 75.5216 14.4524 75.8255 14.5284C76.125 14.6032 76.3294 14.5621 76.3294 14.4312C76.3294 14.2835 76.644 14.2529 77.2417 14.3414C77.9677 14.448 78.1797 14.41 78.2829 14.1482C78.4408 13.7374 79.0643 13.73 80.3597 14.1195C81.3254 14.4119 81.355 14.4069 81.355 13.9843C81.355 13.7455 81.5192 13.4289 81.7218 13.2749C82.0552 13.0237 82.0382 12.9982 81.5248 12.992C80.8554 12.9845 80.7044 12.8018 80.8661 12.1897C80.9624 11.8264 81.1455 11.736 81.8501 11.7241C82.3263 11.7135 82.5981 11.6599 82.4553 11.6026C82.31 11.5446 82.193 11.3695 82.193 11.2099C82.193 10.4613 80.0426 9.86791 79.3128 10.4139C78.571 10.9712 77.1656 10.6209 77.1656 9.87851C77.1656 9.6591 77.0724 9.42474 76.9567 9.35492C76.5805 9.12492 76.7352 8.62877 77.1869 8.62877C77.4499 8.62877 77.6695 8.79457 77.7355 9.04264C77.7953 9.26953 77.9444 9.45839 78.0652 9.45839C78.1866 9.45839 78.4572 9.6136 78.6642 9.79935C79.0177 10.1141 79.0542 10.1141 79.1756 9.79935C79.2474 9.6136 79.438 9.45839 79.5997 9.45839C79.947 9.45839 79.9847 9.12679 79.6645 8.92858C79.5386 8.85253 79.4833 8.61692 79.5386 8.40687C79.6104 8.13323 79.4342 7.90323 78.9271 7.60653C78.2112 7.18829 77.9916 6.77129 78.4767 6.7526C78.9039 6.73577 76.9208 5.78958 76.1224 5.62502C75.7179 5.54275 74.3514 4.9799 73.0844 4.37404C71.8154 3.76818 70.5666 3.21156 70.3074 3.13551C69.777 2.98156 69.6682 2.61193 70.1488 2.61193C70.3206 2.61193 70.464 2.51781 70.464 2.40499C70.464 2.29093 70.6056 2.19805 70.7773 2.19805C70.9503 2.19805 71.0906 2.29093 71.0906 2.40499C71.0906 2.51781 71.3498 2.61318 71.6682 2.61318C71.9827 2.61442 72.5263 2.76215 72.8723 2.94353C73.7173 3.38359 75.6997 3.59303 75.6997 3.2421C75.6997 3.07942 75.8381 3.03516 76.0671 3.12367C76.2678 3.19972 77.5172 3.49018 78.8422 3.77192C80.1659 4.05054 81.4399 4.36718 81.6702 4.47314C82.7007 4.95247 83.7438 5.30838 84.1156 5.30838C84.3383 5.30838 84.7988 5.45112 85.1367 5.62502C85.6928 5.90988 85.7539 5.90988 85.7539 5.62502C85.7539 5.45174 85.8508 5.30838 85.9659 5.30838C86.0798 5.30838 86.1748 5.44987 86.1748 5.61879C86.1748 5.78895 86.3396 5.93045 86.5434 5.93045C86.7479 5.93045 87.4299 6.12554 88.0628 6.36427C88.6938 6.60175 89.5463 6.86666 89.9565 6.95143C90.7951 7.1216 92.8769 8.18684 92.8769 8.44738C92.8769 8.68299 90.49 8.15816 88.5837 7.50244C88.3535 7.42203 88.5183 7.57225 88.948 7.83591C89.3777 8.09957 89.7325 8.43367 89.7325 8.57703C89.7344 8.71852 89.8326 8.83571 89.9496 8.83571C90.0666 8.83571 90.5642 9.1966 91.0493 9.64103C91.5356 10.0854 92.9241 11.0316 94.1346 11.7428C95.345 12.4553 96.6291 13.3148 96.9915 13.6527C97.4061 14.041 97.7012 14.1837 97.7892 14.0422C97.9931 13.715 97.7339 13.4002 97.3746 13.5367C97.084 13.6464 97.0349 13.5704 96.9846 12.934C96.9732 12.7912 96.8197 12.5656 96.6499 12.4335C96.0214 11.9479 96.636 11.9373 98.0415 12.4029C99.5049 12.8897 99.9383 13.1821 99.5527 13.4164C99.425 13.4968 99.4803 13.6034 99.688 13.6845C99.8817 13.7574 100.128 13.7624 100.238 13.695C100.349 13.6265 100.567 13.6782 100.729 13.8091C100.89 13.9431 101.311 14.0572 101.666 14.0665C102.134 14.0815 102.296 14.1762 102.256 14.4181C102.222 14.6344 102.359 14.7516 102.657 14.7559C103.2 14.7634 105.24 16.4071 105.24 16.8359C105.24 17.2573 104.949 17.2055 104.488 16.7007C104.269 16.4619 103.903 16.1771 103.67 16.0674C103.175 15.833 104.394 16.95 106.227 18.406C106.977 19.0026 107.796 19.8958 108.161 20.5185C108.816 21.6279 111.34 24.3076 112.593 25.2238L113.301 25.7431L112.515 24.6778C111.696 23.5671 111.604 23.357 111.925 23.357C112.201 23.357 115.803 28.1079 115.643 28.2631C115.569 28.3348 115.367 28.2756 115.191 28.131C114.744 27.7626 114.795 27.9745 115.291 28.5417C115.704 29.0167 115.83 29.3714 115.583 29.3714C115.513 29.3714 114.97 28.8584 114.376 28.2313C113.781 27.6061 113.209 27.0913 113.105 27.0913C113 27.0913 112.729 26.9286 112.502 26.7291C112.094 26.3714 112.095 26.3732 112.438 27.0395C112.665 27.4765 112.702 27.7121 112.549 27.7121C112.419 27.7121 112.368 27.8598 112.435 28.035C112.517 28.245 112.476 28.3074 112.323 28.2101C111.84 27.9178 112.378 28.5311 112.963 28.9419L113.556 29.362L113.484 28.7443C113.369 27.7551 113.767 28.0294 114.473 29.4262C115.315 31.0911 115.516 31.3404 115.725 31.0044C115.837 30.8262 116.2 31.088 116.897 31.8503C118.034 33.0888 118.58 33.8954 119.517 35.7005C119.873 36.3836 120.362 37.1478 120.605 37.394C121.343 38.1382 121.584 38.4773 121.899 39.2259C122.298 40.1677 122.292 40.6546 121.881 40.4981C121.635 40.404 121.605 40.4588 121.757 40.7356C122.033 41.2517 122.83 45.0988 122.83 45.9184C122.83 46.3005 123.035 47.0504 123.285 47.5864C123.794 48.6791 124.067 50.7366 123.703 50.7366C123.579 50.7366 123.371 50.3408 123.245 49.8553C122.868 48.4129 122.796 48.2116 122.695 48.3151C122.641 48.368 122.734 49.1366 122.906 50.0273C123.188 51.5064 123.291 51.7152 124.134 52.4881C125.317 53.5702 125.676 54.8349 125.864 58.5692C125.983 60.9826 125.962 61.3174 125.671 61.3174C125.492 61.3174 125.343 61.1771 125.343 61.007C125.343 60.8349 125.201 60.6953 125.031 60.6953C124.86 60.6953 124.718 60.5551 124.718 60.3861C124.718 59.9205 124.348 60.0103 124.186 60.5127C124.015 61.05 124.263 63.1867 124.497 63.1867C124.592 63.1867 124.728 63.5856 124.802 64.0705C124.899 64.6957 125.069 65.0186 125.382 65.1601C126.312 65.5833 126.792 69.403 126.309 72.5152C126.14 73.5954 125.901 74.5129 125.778 74.5553C125.655 74.5939 125.554 74.7622 125.554 74.9205C125.554 75.0838 125.459 75.216 125.343 75.216C125.228 75.216 125.134 75.0745 125.134 74.9025C125.134 74.5098 124.27 72.6473 124.044 72.5526C123.769 72.4385 123.855 72.0626 124.214 71.8027C124.512 71.5864 124.489 71.5179 124.003 71.2043C123.309 70.7524 123.299 70.0419 123.973 69.4148C124.407 69.0103 124.544 68.9766 124.816 69.1985C124.996 69.3462 125.2 69.4086 125.274 69.3356C125.486 69.1243 124.69 66.5052 124.414 66.5052C124.27 66.5052 124.007 65.8164 123.8 64.8983C123.174 62.1214 122.996 61.4576 122.546 60.1798L122.104 58.9351L121.889 60.0595C121.681 61.1291 121.245 61.6739 121.07 61.0793C121.026 60.9272 120.879 60.4048 120.747 59.9211C120.614 59.4356 120.426 59.0398 120.331 59.0398C120.233 59.0398 119.794 58.7125 119.354 58.3136C118.915 57.9116 118.502 57.5875 118.439 57.5906C118.217 57.5968 116.961 60.5382 116.961 61.0462C116.961 61.3248 116.829 61.9899 116.669 62.5266C116.322 63.6878 115.874 66.2079 115.896 66.8879C115.904 67.1547 115.684 67.8391 115.408 68.4125C114.943 69.3762 114.925 69.5071 115.204 70.1615C115.367 70.5524 115.512 71.3122 115.523 71.852C115.549 73.0238 115.846 74.1183 116.2 74.3352C116.724 74.655 117.379 75.8206 117.379 76.4339C117.379 77.2224 117.005 78.0602 116.581 78.2203C116.154 78.383 115.948 78.0178 115.781 76.8123C115.631 75.7121 115.363 75.7502 114.98 76.9282C114.81 77.4424 114.64 77.6039 114.253 77.6039C113.852 77.6039 113.623 77.3683 113.152 76.4626C112.824 75.8374 112.464 75.2908 112.347 75.2546C112.23 75.2154 111.905 74.7024 111.623 74.1133C111.34 73.5249 110.879 72.8019 110.603 72.5083C110.327 72.216 110.036 71.7716 109.955 71.5235C109.875 71.276 109.714 71.0716 109.594 71.0716C109.475 71.0716 109.425 70.9438 109.487 70.7855C109.548 70.6272 109.371 70.1659 109.09 69.7595C108.811 69.3531 108.585 68.9268 108.585 68.8127C108.585 68.6968 108.242 68.6481 107.792 68.7011C107.26 68.7653 106.734 68.6606 106.179 68.3782C105.725 68.1489 105.23 67.96 105.083 67.96C104.936 67.96 104.812 67.8272 104.812 67.6658C104.812 67.5031 104.523 67.3086 104.17 67.2326C103.816 67.1547 103.477 66.959 103.414 66.7957C103.35 66.633 103.11 66.3967 102.88 66.2771C102.55 66.1038 102.339 66.1381 101.909 66.4485C101.607 66.6648 101.026 66.9752 100.625 67.1335C100.221 67.2968 99.7081 67.5929 99.4822 67.8017C99.2551 68.0068 98.9739 68.1395 98.8543 68.0971C98.7329 68.056 98.2107 68.1439 97.6942 68.2978C96.5209 68.6481 95.3432 68.66 95.0122 68.3327C94.6436 67.9694 94.6794 68.6556 95.0676 69.3967C95.4212 70.0755 95.854 70.2899 96.5228 70.1241C96.8128 70.0512 97.2954 70.1834 97.7823 70.4682C98.5178 70.8958 98.5624 70.9775 98.4379 71.6737C98.3662 72.0845 98.2535 72.7695 98.1881 73.1983C98.1158 73.6702 97.9547 73.9756 97.7766 73.9756C97.5797 73.9756 97.4828 74.228 97.4828 74.7566C97.4828 75.3107 97.3646 75.6099 97.0651 75.7957C96.8348 75.9378 96.6442 76.2494 96.6442 76.485C96.6442 76.7468 96.475 76.9631 96.2158 77.0298C95.9559 77.0965 95.7395 77.3708 95.669 77.7186C95.5967 78.0795 95.3815 78.3394 95.1053 78.4111C94.4083 78.5875 93.121 79.7394 93.0474 80.2536C93.0065 80.5416 92.5838 80.9735 91.9339 81.3949C91.3576 81.7695 90.6624 82.2794 90.3919 82.5287C89.7652 83.1021 87.8237 84.3456 87.5532 84.3456C87.4393 84.3456 87.0927 84.5875 86.78 84.8842C86.4346 85.2139 85.9464 85.4352 85.5286 85.4545C84.914 85.4838 84.7944 85.3903 84.3685 84.5538C83.7759 83.3851 83.6236 82.9488 83.5513 82.1877C83.5116 81.7657 83.1719 81.2927 82.4377 80.6307C81.857 80.1059 81.3285 79.4863 81.2612 79.2476C81.1952 79.0101 80.834 78.686 80.4622 78.5214C79.935 78.292 79.7186 78.0178 79.4959 77.2935C79.0133 75.7271 78.5899 75.0078 78.0646 74.8782C77.7928 74.8083 77.4285 74.4855 77.2568 74.1557C77.0838 73.8272 76.8636 73.5574 76.7642 73.5574C76.666 73.5574 76.5257 73.3473 76.4553 73.0917C76.2313 72.2945 74.9963 71.0311 74.5905 71.185C74.3936 71.2592 74.2332 71.4618 74.2332 71.6357C74.2332 72.0346 75.319 73.9245 75.9041 74.5453C76.1482 74.8021 76.2955 75.0976 76.2313 75.201C76.0778 75.4479 76.3194 76.0469 76.5742 76.0469C77.1624 76.0469 77.918 77.3128 78.1193 78.6398C78.2301 79.3785 78.3911 79.6521 78.8686 79.932C79.2033 80.1277 79.6827 80.7111 79.93 81.2266C80.1791 81.7408 80.4849 82.2338 80.6088 82.3161C80.7592 82.4196 80.7504 82.4701 80.5748 82.4713C80.4352 82.4732 80.3754 82.6159 80.4415 82.7867C80.6013 83.1956 80.936 83.1857 80.936 82.7718C80.936 82.5536 81.0895 82.4676 81.4059 82.5131C81.7161 82.5555 81.8771 82.7213 81.8771 82.9949C81.8771 83.2505 82.215 83.6326 82.7636 83.9978C84.0904 84.8742 84.8278 85.6259 84.9876 86.2561C85.216 87.1755 85.8168 87.3469 86.9669 86.8314C87.5092 86.5877 88.093 86.2997 88.2648 86.195C88.4365 86.0884 88.7209 85.9438 88.8914 85.8752C90.2534 85.3379 91.5407 84.6679 91.6791 84.4248C91.7709 84.2652 92.0314 84.1343 92.2554 84.1343C92.5605 84.1343 92.6637 84.2771 92.6637 84.714C92.6637 85.0338 92.7807 85.414 92.9248 85.5574C93.1349 85.7674 93.1166 85.8584 92.8279 86.0199C92.6309 86.1296 92.5209 86.3483 92.5819 86.5067C92.6423 86.6637 92.4856 87.1904 92.2333 87.6804C91.9829 88.1672 91.5482 89.1638 91.2733 89.8962C90.4837 91.9731 89.4702 93.3456 86.7227 96.0546C82.9259 99.8032 80.9272 102.181 81.5739 102.181C81.9011 102.181 81.7954 102.975 81.4581 103.049C81.1845 103.107 81.182 103.186 81.4399 103.676C81.7765 104.315 81.7626 104.699 81.3864 105.149C81.0328 105.569 81.2832 106.473 81.7872 106.6C82.1464 106.694 82.1854 106.895 82.1559 108.539L82.1219 110.374L81.2587 111.202C80.7692 111.674 79.9256 112.197 79.3141 112.413C78.7183 112.62 78.1149 112.93 77.9715 113.1C77.8274 113.27 77.348 113.593 76.9013 113.818C76.0105 114.271 75.7381 114.695 76.0822 115.105C76.3483 115.425 76.1671 116.815 75.8242 117.084C75.6953 117.184 75.107 117.422 74.5188 117.611C73.6185 117.904 73.3901 118.086 73.0875 118.746C72.7283 119.538 72.6591 119.59 69.7625 121.105C67.9884 122.035 66.8207 122.259 63.2327 122.361C61.3868 122.412 59.619 122.414 59.3025 122.362ZM75.733 108.214C75.5594 107.779 75.3184 108.965 75.4625 109.544C75.5436 109.864 75.6009 109.8 75.7154 109.252C75.7978 108.862 75.8047 108.396 75.733 108.214ZM71.2951 105.316C71.2951 105.216 71.1001 105.082 70.8635 105.021C70.5099 104.93 70.4778 104.963 70.6804 105.204C70.9572 105.535 71.2951 105.596 71.2951 105.316ZM74.3149 100.523C74.744 100.523 75.3379 99.7408 75.1932 99.3668C75.0951 99.1113 74.917 99.0645 74.4886 99.1692C74.1734 99.2453 73.8815 99.3961 73.8462 99.5008C73.8066 99.6074 73.6525 99.6928 73.5002 99.6928C73.3517 99.6928 73.1888 99.9715 73.1397 100.309C73.0642 100.804 73.1284 100.931 73.482 100.982C73.7204 101.015 73.9456 100.927 73.9828 100.784C74.0192 100.64 74.1709 100.523 74.3149 100.523ZM125.119 72.8605C124.919 72.6779 124.89 72.7115 124.996 73.0051C125.07 73.2133 125.143 73.5418 125.159 73.7306C125.177 73.9214 125.231 73.8553 125.282 73.5866C125.334 73.3167 125.259 72.9901 125.119 72.8605ZM124.921 72.2091C124.921 71.8121 124.79 71.8121 124.637 72.2091C124.57 72.3812 124.604 72.5214 124.718 72.5214C124.83 72.5214 124.921 72.3812 124.921 72.2091ZM92.2459 70.6814C92.2491 70.389 92.2786 70.3847 92.4454 70.6508C92.7083 71.0616 92.9078 70.8416 93.7017 69.254C94.0578 68.5391 94.4422 67.9575 94.553 67.9575C94.6637 67.9575 94.7543 67.8416 94.7499 67.6988C94.7455 67.5548 94.5058 67.7082 94.2126 68.0367C93.5445 68.7871 92.2126 68.9972 91.2437 68.501C90.8857 68.3184 90.4479 68.2243 90.2711 68.291C89.9578 68.4082 88.4711 67.083 88.4711 66.6853C88.4711 66.5868 88.3717 66.5058 88.2484 66.5058C88.1251 66.5058 88.0854 66.4136 88.1565 66.2989C88.227 66.1848 88.1855 66.0919 88.0628 66.0919C87.942 66.0919 87.8388 66.3007 87.8376 66.5575C87.8344 66.9347 87.796 66.9652 87.6318 66.7128C87.4569 66.4447 87.4274 66.4478 87.4242 66.7483C87.423 66.9384 87.3047 67.1453 87.16 67.2077C86.9807 67.2837 87.0461 67.4283 87.3708 67.6639C87.6287 67.8528 87.8407 68.1339 87.8407 68.2879C87.8407 68.4443 87.9728 68.516 88.1402 68.4524C88.317 68.3839 88.5888 68.574 88.8178 68.9255C89.0266 69.2484 89.3381 69.6367 89.513 69.7888C89.6866 69.939 89.7281 70.0138 89.6042 69.9515C89.4796 69.8923 89.3752 69.9627 89.3752 70.1117C89.3752 70.2575 89.5104 70.3778 89.6721 70.3778C89.8716 70.3778 89.9376 70.2151 89.876 69.8898C89.7948 69.4709 89.8451 69.421 90.2251 69.5351C90.7914 69.7053 90.7549 69.6629 90.9725 70.4084C91.1003 70.8528 91.0801 71.0778 90.9128 71.1495C90.741 71.2193 90.7542 71.3078 90.965 71.4518C91.345 71.7086 92.2396 71.1701 92.2459 70.6814ZM60.1934 67.5424C60.2852 66.7296 60.3903 66.5638 61.0308 66.2471C61.9814 65.7784 62.8169 65.7865 63.3057 66.2714C63.5209 66.4846 64.0613 66.7265 64.5118 66.8087C64.9584 66.8923 65.419 67.0338 65.5347 67.1235C65.6499 67.2145 66.0733 67.3398 66.4778 67.4053C66.8805 67.4695 67.6832 67.6091 68.2576 67.7169C69.1535 67.8815 69.3901 67.854 69.8663 67.5181C70.4502 67.1054 71.4977 67.007 72.7723 67.2363C73.7368 67.4115 73.8657 67.2426 74.4187 65.041C74.9636 62.8713 74.8302 61.6764 74.0287 61.5636C73.7431 61.5243 73.4606 61.6259 73.3561 61.8073C73.0856 62.2835 71.9658 62.4599 71.5417 62.0934C70.9856 61.6097 70.2482 61.4464 70.2482 61.806C70.2482 62.4026 69.1485 62.5459 68.6137 62.0173C68.291 61.6976 68.2576 61.7069 68.1519 62.1576C68.0362 62.6494 67.5253 62.9959 67.5253 62.5852C67.5253 62.4605 67.3297 62.1651 67.0906 61.9295C66.8528 61.6938 66.7112 61.3604 66.776 61.1883C66.8654 60.9583 66.7911 60.9128 66.4778 61.0132C66.1796 61.1073 66.0613 61.0481 66.0613 60.8062C66.0613 60.6224 66.1551 60.5264 66.2702 60.5962C66.3841 60.666 66.4791 60.6267 66.4791 60.5052C66.4791 60.3836 66.335 60.2845 66.1551 60.2845C65.9034 60.2845 65.843 60.0763 65.8795 59.3545C65.9072 58.8434 65.8644 58.361 65.7845 58.2831C65.7033 58.2027 65.6392 58.2494 65.6392 58.3822C65.6392 58.515 65.4976 58.6228 65.3271 58.6228C65.1554 58.6228 65.0138 58.4844 65.0138 58.3124C65.0138 58.1435 65.1076 58.002 65.2227 58.002C65.3384 58.002 65.4316 57.8468 65.4316 57.6579C65.4316 57.3843 65.3517 57.4098 65.0201 57.7875C64.7898 58.0462 64.3123 58.3186 63.9525 58.3915L63.2994 58.5237L63.843 59.1034C64.15 59.4318 64.491 59.6195 64.6282 59.5372C64.7603 59.4549 64.8137 59.478 64.7464 59.5846C64.6791 59.6911 65.0044 60.1873 65.468 60.6866C66.1916 61.4613 66.2639 61.6178 65.972 61.7792C65.7845 61.8815 65.6864 62.0547 65.7524 62.1613C65.8197 62.2679 65.7864 62.3564 65.6757 62.3564C65.5649 62.3564 65.4209 62.2181 65.3561 62.0491C65.2887 61.874 65.0981 61.7948 64.915 61.8653C64.6867 61.9519 64.5923 61.8578 64.5923 61.5442C64.5923 61.0119 63.9965 60.7271 63.7367 61.1347C63.6366 61.2943 63.5511 61.6808 63.5479 61.9943C63.5479 62.3078 63.451 62.5634 63.3359 62.5634C63.222 62.5634 63.127 62.4904 63.127 62.4007C63.127 62.3122 62.8446 62.1327 62.5004 62.0049C62.0764 61.8466 61.8707 61.6278 61.8707 61.3367C61.8707 61.098 61.7354 60.9029 61.5693 60.9029C61.1333 60.9029 60.932 60.4722 61.2679 60.2608C61.4781 60.1312 61.4862 60.0795 61.2956 60.0782C61.1515 60.077 61.0345 59.8925 61.0345 59.6718C61.0345 59.4499 60.9376 59.2106 60.8213 59.1395C60.4249 58.8958 59.9996 57.5737 60.1223 56.9648C60.2204 56.4867 60.1267 56.2554 59.6756 55.8416C59.3654 55.5555 58.7879 55.2164 58.3959 55.0867C58.004 54.9602 57.6831 54.7551 57.6831 54.6348C57.6831 54.5164 57.4711 54.2135 57.2132 53.9604C56.4343 53.2118 56.0059 52.6184 56.0059 52.2912C56.0059 51.8193 55.5957 51.9259 55.3912 52.4507C55.2515 52.8116 55.3239 53.0367 55.7139 53.4474C55.9889 53.7398 56.2147 54.1243 56.2147 54.3014C56.2147 54.8019 57.0351 55.7181 57.4881 55.7181C57.7096 55.7181 57.8907 55.8416 57.8907 55.9893C57.8907 56.1401 58.3179 56.5571 58.8351 56.9205C59.7907 57.5887 59.9254 57.8611 59.5737 58.4134C59.4076 58.6751 59.3094 58.649 58.9364 58.2519C58.6935 57.9945 58.3991 57.8424 58.2808 57.9153C58.1348 58.0038 58.1393 58.1191 58.2934 58.2712C58.418 58.3959 58.5224 58.6564 58.5224 58.8497C58.5224 59.3396 57.4623 60.4902 57.0093 60.4902C56.7344 60.4902 56.6375 60.6529 56.6375 61.1129C56.6375 61.8023 56.243 61.9363 55.7253 61.4233C55.5516 61.2513 55.3472 61.1129 55.2704 61.1129C54.9508 61.1129 53.914 60.2334 53.914 59.961C53.914 59.5927 54.9187 59.3278 55.2106 59.617C55.473 59.8756 56.8848 59.6918 57.1106 59.3689C57.3642 59.008 57.0829 58.2126 56.5318 57.724C55.3969 56.7211 54.9206 56.3408 54.7885 56.3359C54.7098 56.3327 54.3707 55.96 54.0329 55.5062C53.695 55.0512 53.2943 54.6816 53.1433 54.6816C52.9923 54.6816 52.8684 54.5875 52.8684 54.4734C52.8684 54.3593 52.9684 54.2665 53.0942 54.2665C53.3981 54.2665 53.1049 53.3963 52.701 53.104C52.4601 52.9307 52.2216 52.9519 51.7365 53.1906C50.5015 53.7977 50.36 53.8526 50.0775 53.8526C49.9209 53.8526 49.4924 53.7036 49.1237 53.5222C48.3052 53.1177 47.8441 53.2623 47.8441 53.9255C47.8441 54.5233 47.5924 54.7439 46.4833 55.1229C45.3791 55.4987 44.241 56.5091 44.3927 56.9766C44.5172 57.3662 43.33 58.7038 43.0255 58.5181C42.9287 58.4589 42.7091 58.5517 42.5342 58.725C42.1731 59.0828 41.605 59.1239 40.8613 58.8422C40.1699 58.5823 39.4634 58.7917 39.4634 59.2579C39.4634 59.7192 39.666 59.8557 40.4404 59.9137C40.7676 59.938 41.1513 60.0701 41.2942 60.206C41.4659 60.3737 41.7427 60.3961 42.1315 60.2777C44.4216 59.5765 44.9318 59.5534 48.8897 59.9978C49.5207 60.0695 50.5412 60.1181 51.1508 60.1056C51.9265 60.0907 52.2933 60.1723 52.372 60.3768C52.4349 60.5395 52.6192 60.6205 52.7834 60.5582C52.9816 60.4821 53.0797 60.59 53.0797 60.8885C53.0797 61.1322 52.9413 61.3828 52.774 61.4458C52.5343 61.5399 52.5192 61.6571 52.7016 62.0105C53.3188 63.1991 53.327 63.2384 53.0458 63.4167C52.8904 63.5139 52.611 63.5931 52.4223 63.5962C52.2336 63.5962 52.0215 63.7452 51.9505 63.9216C51.88 64.1073 51.9152 64.1896 52.0366 64.1135C52.1505 64.0437 52.562 64.3205 52.9489 64.7269C53.339 65.1358 53.8567 65.4668 54.1103 65.4668C54.9458 65.4668 56.4324 66.2714 56.4324 66.7221C56.4324 66.9839 56.6457 67.217 57.0068 67.3554C57.3245 67.4757 58.0084 67.7905 58.5262 68.0541C59.831 68.7229 60.0675 68.6531 60.1934 67.5424ZM64.318 63.6585C63.9858 63.6099 63.7662 63.4634 63.8122 63.3269C63.9059 63.0471 63.9367 63.0452 65.273 63.2708C67.1208 63.5868 66.2356 63.9465 64.318 63.6585ZM71.7128 63.5887C71.7128 63.2889 72.2614 62.7622 72.415 62.9143C72.4823 62.981 72.7754 62.8806 73.0693 62.6905C73.6141 62.3359 73.794 62.4954 73.3467 62.9374C73.2083 63.0745 73.1794 63.1854 73.2819 63.1854C73.3832 63.1854 73.2869 63.3238 73.0623 63.4915C72.5873 63.8474 71.7128 63.9097 71.7128 63.5887ZM66.8194 63.082C66.9761 62.6849 67.1069 62.6849 67.1069 63.082C67.1069 63.254 67.0151 63.3936 66.9044 63.3936C66.7917 63.3936 66.754 63.2552 66.8194 63.082ZM55.5837 62.3558C55.5837 62.0909 55.7328 62.0909 55.8983 62.3558C55.9687 62.4717 55.9272 62.5627 55.8045 62.5627C55.6837 62.5627 55.5837 62.473 55.5837 62.3558ZM51.1603 58.4832C51.1464 58.3872 51.154 58.2201 51.1785 58.1061C51.203 57.992 51.22 57.5139 51.22 57.0408C51.22 56.3757 51.2968 56.1919 51.5654 56.2131C51.8359 56.2343 51.8957 56.0778 51.8466 55.4751C51.7988 54.8785 51.8787 54.6641 52.2197 54.4827C52.5978 54.2802 52.6501 54.3107 52.6375 54.7265C52.6299 54.9882 52.5481 55.3884 52.4575 55.6134C52.3638 55.8416 52.3682 56.2361 52.4638 56.4898C52.5959 56.8401 52.3934 58.0419 52.1518 58.3373C52.0278 58.4875 51.1785 58.6109 51.1603 58.4832ZM46.4789 57.1836C46.2945 56.8881 46.5298 56.5503 46.918 56.5503C47.0992 56.5503 47.2068 56.6949 47.1652 56.8956C47.0853 57.3126 46.6676 57.4865 46.4789 57.1836ZM47.6245 56.7697C47.6245 56.6494 47.7195 56.5503 47.8347 56.5503C48.102 56.5503 48.102 56.6961 47.8347 56.8607C47.7183 56.9311 47.6245 56.89 47.6245 56.7697ZM65.0346 60.8461C64.8628 60.6772 64.8031 60.7003 64.8031 60.9328C64.8031 61.3467 65.0836 61.6253 65.1868 61.3149C65.2315 61.184 65.1623 60.9727 65.0346 60.8461ZM88.3296 57.949C88.6366 57.7252 88.6523 57.5974 88.4277 57.0146C88.2849 56.645 88.0961 56.3421 88.0056 56.3421C87.9143 56.3421 87.8407 56.2237 87.8407 56.079C87.8407 55.9332 87.652 55.4676 87.4217 55.0425C87.1914 54.6174 87.0021 54.1399 87.0021 53.9804C87.0021 53.8239 86.8593 53.5783 86.6888 53.4356C86.5158 53.2941 86.3742 52.9563 86.3742 52.6851C86.3742 52.3273 86.2572 52.1933 85.9451 52.1933C85.7117 52.1933 85.2814 51.959 84.9958 51.6741C84.7057 51.388 84.3861 51.1549 84.2861 51.1549C84.1848 51.1549 83.9288 50.9386 83.7199 50.6756C83.2071 50.0335 82.6938 49.8659 82.3805 50.2417C82.1898 50.4667 82.1823 50.6662 82.3465 51.0072C82.4692 51.2583 82.6258 51.6978 82.6919 51.9839C82.7567 52.2687 82.8812 52.5985 82.97 52.7144C83.2984 53.1545 85.394 54.6803 85.6683 54.6803C85.8269 54.6803 85.9558 54.8206 85.9558 54.9907C85.9558 55.1609 85.8099 55.3024 85.6299 55.3024C85.367 55.3024 85.3198 55.5293 85.3688 56.4942C85.4255 57.59 85.4745 57.6947 85.9558 57.757C86.2446 57.795 86.5705 57.9135 86.6774 58.0157C86.9675 58.2931 87.9131 58.2532 88.3296 57.949ZM68.1526 57.3799C68.1526 57.2658 68.0041 57.1717 67.8267 57.1717C67.6474 57.1717 67.5561 57.2658 67.6291 57.3799C67.7965 57.6479 68.1526 57.6479 68.1526 57.3799ZM70.8283 56.0541C71.6638 55.5243 73.599 55.1578 73.599 55.5293C73.599 55.6477 73.6971 55.6857 73.8173 55.6116C73.9375 55.5374 74.1753 55.5904 74.3414 55.7287C74.5131 55.869 75.2536 55.9781 76.0199 55.9781C77.1567 55.9781 77.4776 55.8989 77.8954 55.5093C78.5232 54.9265 78.3376 54.4884 77.2178 53.9056C76.7818 53.6787 75.9079 53.2224 75.2731 52.8858C74.0381 52.2345 73.6021 52.227 72.7264 52.8416C72.0475 53.3196 71.504 53.3452 71.504 52.9026C71.504 52.72 71.3089 52.5206 71.068 52.4582C70.7698 52.3803 70.6641 52.2251 70.7352 51.9589C70.8069 51.6866 70.7238 51.5725 70.4558 51.5725C70.2451 51.5725 70.0255 51.4553 69.9657 51.3138C69.8261 50.976 69.0032 51.9502 68.9969 52.4564C68.9918 52.6571 68.8012 52.9812 68.5697 53.1763C68.3394 53.3739 68.1519 53.7877 68.1519 54.1075C68.1519 54.4242 68.0657 54.6841 67.9657 54.6841C67.6121 54.6841 67.5373 55.6078 67.8487 56.0809C68.291 56.7435 69.7594 56.7317 70.8283 56.0541ZM74.5024 51.287C74.5641 51.1287 74.515 50.9037 74.3948 50.7846C74.1155 50.506 73.18 50.8987 73.18 51.2945C73.18 51.6672 74.3584 51.6598 74.5024 51.287ZM59.2377 42.5426C59.7322 42.1698 60.4375 42.1486 60.786 42.4952C60.966 42.6735 61.0918 42.6841 61.1943 42.532C61.2774 42.4104 61.4969 42.2552 61.6876 42.1848C61.9071 42.1044 62.0701 41.736 62.1393 41.1638C62.1991 40.6708 62.4155 39.7807 62.6218 39.1842C62.9351 38.2785 63.1012 38.0778 63.6373 37.9425C64.1997 37.801 64.1274 37.7692 63.0201 37.6764C62.2871 37.6153 61.7285 37.6552 61.6775 37.7755C61.5303 38.1258 61.1339 38.4449 60.664 38.5914C60.1921 38.7391 59.8637 39.3905 60.0833 39.7433C60.2274 39.9702 59.8392 40.8054 59.4799 41.0416C59.3541 41.127 59.0389 41.1956 58.7797 41.1981C58.2928 41.2012 58.1487 41.4935 58.5186 41.7198C58.8332 41.913 58.7678 42.2371 58.4129 42.2371C58.2412 42.2371 58.0996 42.1443 58.0996 42.0302C58.0996 41.9161 57.8643 41.8233 57.5755 41.8233C57.2868 41.8233 57.0515 41.9161 57.0515 42.0302C57.0515 42.1443 57.193 42.2371 57.3648 42.2371C57.5384 42.2371 57.6812 42.3799 57.6812 42.5488C57.6787 42.9533 58.6929 42.9502 59.2377 42.5426ZM60.6124 40.0319C60.6124 39.7913 60.7552 39.4746 60.9301 39.3306C61.4246 38.9199 61.4724 39.1829 61.0219 39.8617C60.6602 40.4059 60.6143 40.4258 60.6124 40.0319ZM56.8281 40.5916C57.0741 40.4376 57.0817 40.313 56.8728 39.9203C56.7205 39.6311 56.6639 39.5962 56.7312 39.8262C56.8017 40.0605 56.6992 40.3254 56.4777 40.4956C56.0644 40.8035 56.3563 40.887 56.8281 40.5916ZM64.3067 39.8505C64.4879 39.383 63.9808 38.8519 63.631 39.1412C63.4095 39.3194 63.4051 39.4516 63.602 39.7651C63.904 40.245 64.1437 40.2737 64.3067 39.8505ZM72.5515 38.309C72.5515 38.0273 72.1815 37.8434 72.0494 38.0566C71.9236 38.2573 72.1048 38.5054 72.3766 38.5054C72.4735 38.5054 72.5515 38.4175 72.5515 38.309ZM66.3432 37.3628C66.4967 36.9658 66.3891 36.9658 66.0575 37.3628C65.9059 37.5424 65.887 37.6733 66.0104 37.6733C66.1274 37.6745 66.2759 37.5349 66.3432 37.3628ZM62.3419 36.3506C62.5155 36.0981 62.4633 33.9415 62.2834 33.9415C62.2204 33.9415 61.8826 34.2033 61.5309 34.5212C60.7017 35.2716 60.4526 36.163 60.9704 36.5482C61.3655 36.8424 62.0732 36.742 62.3419 36.3506ZM68.7811 36.5407C68.7811 36.2758 68.1897 35.8058 67.8512 35.8058C67.6379 35.8058 67.7273 36.3412 67.9852 36.5943C68.3325 36.9396 68.7811 36.9078 68.7811 36.5407ZM63.6631 33.1916C64.457 32.5908 64.6049 32.0747 63.9776 32.0747C63.5674 32.0747 62.915 32.5827 62.915 32.9024C62.915 32.9984 62.8584 33.2265 62.7892 33.4048C62.608 33.8717 62.837 33.8156 63.6631 33.1916ZM70.1432 32.6955C70.0727 32.5827 69.8544 32.4948 69.6593 32.5023C69.3687 32.516 69.3813 32.5496 69.7241 32.6955C70.2847 32.9361 70.291 32.9361 70.1432 32.6955ZM71.1894 31.5766C71.1894 31.1914 71.068 31.1428 70.1293 31.1428C69.1799 31.1428 69.0768 31.1852 69.1491 31.5567C69.2145 31.8976 69.4052 31.9768 70.2092 31.9936C71.073 32.0105 71.1894 31.9618 71.1894 31.5766ZM112.234 27.742C112.297 27.6429 112.215 27.4497 112.054 27.3175C111.813 27.12 111.778 27.153 111.872 27.5002C111.994 27.9701 112.063 28.0144 112.234 27.742ZM78.6528 21.6473C78.4471 21.4434 78.4213 21.469 78.5358 21.7632C78.6145 21.9689 78.7315 22.083 78.7956 22.0188C78.8617 21.9564 78.7956 21.7875 78.6528 21.6473ZM103.136 15.8162C103.136 15.775 102.972 15.6105 102.771 15.454C102.439 15.1966 102.432 15.2047 102.693 15.5332C102.964 15.8766 103.136 15.9882 103.136 15.8162ZM88.0527 7.2955C88.0527 7.13905 85.462 6.36552 85.3462 6.48893C85.2191 6.62606 85.2877 6.65785 86.7963 7.1858C87.6337 7.48 88.0527 7.51615 88.0527 7.2955ZM83.7979 115.917C83.752 115.835 83.7016 115.387 83.6872 114.922C83.6645 114.231 83.7784 113.966 84.2974 113.473C84.8517 112.949 84.9159 112.773 84.8026 112.109C84.6523 111.238 85.1436 110.063 85.6538 110.063C86.2364 110.063 87.8564 109.182 88.4296 108.556C90.7379 106.021 90.7549 106.006 91.0606 106.332C91.4689 106.759 91.6445 108.326 91.3142 108.599C91.1707 108.717 90.9914 108.751 90.9159 108.678C90.8392 108.602 90.7775 108.791 90.7775 109.095C90.7775 109.401 90.6825 109.65 90.5674 109.65C90.4516 109.65 90.3585 109.741 90.3585 109.853C90.3585 110.094 88.9574 112.337 87.7394 114.048C87.1021 114.946 86.6781 115.313 85.9728 115.579C84.909 115.984 83.9212 116.136 83.7979 115.917ZM94.9663 110.697C94.9663 110.576 95.0594 110.477 95.1752 110.477C95.4438 110.477 95.4438 110.624 95.1752 110.787C95.06 110.858 94.9663 110.819 94.9663 110.697ZM45.3187 97.8385C45.3187 97.7169 45.4156 97.6178 45.5289 97.6178C45.7994 97.6178 45.7994 97.7649 45.5289 97.9282C45.4144 97.9999 45.3187 97.96 45.3187 97.8385ZM10.1897 96.0097C7.8613 92.4082 4.96916 85.907 3.56368 81.1175C1.3271 73.4844 0.488464 64.7649 1.3076 57.6261C1.64859 54.666 2.02041 54.4821 1.96316 57.3051C1.85998 62.526 1.89836 64.4221 2.11667 64.682C2.24438 64.8328 2.45766 65.6089 2.59103 66.4048C2.72315 67.2021 2.91818 68.0136 3.02262 68.2112C3.1258 68.4088 3.21451 69.0178 3.21639 69.5594C3.21954 70.1042 3.34977 71.1065 3.50831 71.7934C3.66811 72.4784 3.85685 73.5037 3.93046 74.0759C4.16387 75.9054 5.88393 80.041 6.99624 81.4566C7.3171 81.8705 8.01607 83.1071 8.54454 84.2079C9.07616 85.308 9.59079 86.2087 9.69208 86.2087C9.91165 86.2087 10.0746 86.5983 10.4603 88.035C10.8874 89.6195 10.8321 90.0801 10.1193 90.9584L9.48195 91.7437L10.0287 93.3843C10.6352 95.2106 11.1636 97.2039 11.0409 97.2039C10.9963 97.2027 10.6138 96.6666 10.1897 96.0097ZM94.7555 82.8921C95.1689 82.6272 95.6527 82.6272 95.4897 82.8921C95.4193 83.0049 95.1538 83.099 94.9015 83.0959C94.5284 83.0946 94.5007 83.056 94.7555 82.8921ZM82.6063 81.5251C82.6063 81.1599 83.058 81.2241 83.187 81.6093C83.2329 81.7446 83.1216 81.8561 82.9379 81.8561C82.7567 81.8555 82.6063 81.7047 82.6063 81.5251ZM19.0215 73.9594C18.946 73.8378 18.9341 73.6882 18.9951 73.6278C19.1442 73.4788 19.5525 73.7406 19.5525 73.9837C19.5544 74.2498 19.192 74.233 19.0215 73.9594ZM19.7633 73.1422C19.7633 72.8754 19.9124 72.8754 20.0778 73.1422C20.1483 73.255 20.1087 73.3504 19.9841 73.3504C19.8633 73.3504 19.7633 73.2563 19.7633 73.1422ZM18.6635 71.8015C18.2427 71.2311 18.2087 71.0678 18.5056 71.0678C18.6195 71.0678 18.7145 71.1763 18.7145 71.3103C18.7145 71.4443 18.8724 71.7254 19.063 71.9342C19.2537 72.1424 19.3241 72.3089 19.2197 72.307C19.1153 72.302 18.8649 72.077 18.6635 71.8015ZM121.513 65.5484C121.43 65.4661 121.367 65.157 121.372 64.8646L121.386 64.328L121.587 64.8272C121.807 65.3689 121.761 65.7952 121.513 65.5484ZM28.4736 64.4589C28.3831 64.3142 28.368 64.141 28.4365 64.0724C28.624 63.8867 28.8285 64.1609 28.7266 64.4601C28.6555 64.6702 28.6058 64.6702 28.4736 64.4589ZM29.9257 64.0986C30.227 63.8031 30.5202 63.6087 30.58 63.6648C30.7442 63.8274 29.9735 64.6396 29.6571 64.6396C29.4966 64.6384 29.6092 64.4134 29.9257 64.0986ZM27.7231 63.6006C27.7231 63.4877 27.8703 63.3936 28.0502 63.3936C28.2302 63.3936 28.3189 63.4877 28.2472 63.6006C28.0792 63.8717 27.7231 63.8717 27.7231 63.6006ZM29.1896 58.8316C29.1896 58.5667 29.3387 58.5667 29.5042 58.8316C29.5746 58.9457 29.5331 59.0385 29.4123 59.0385C29.2896 59.0385 29.1896 58.9457 29.1896 58.8316ZM26.0471 50.9492C26.0471 50.683 26.1962 50.683 26.3616 50.9492C26.4321 51.062 26.3925 51.1574 26.2698 51.1574C26.1452 51.1574 26.0471 51.0632 26.0471 50.9492ZM24.8876 49.2793C24.697 48.972 24.8492 48.8611 25.1839 49.0693C25.3651 49.1771 25.3865 49.2856 25.2456 49.3703C25.1273 49.4439 24.9656 49.4027 24.8876 49.2793ZM4.08586 47.4212C4.08586 47.1364 4.13367 47.0192 4.19155 47.1626C4.24818 47.3053 4.24818 47.5384 4.19155 47.6818C4.13304 47.8245 4.08586 47.7092 4.08586 47.4212ZM4.21609 45.5332C4.06069 45.1312 4.47844 43.275 4.72632 43.275C4.89681 43.275 4.78923 44.1881 4.47718 45.3412C4.37589 45.7215 4.30857 45.7701 4.21609 45.5332ZM6.56654 38.0884C6.56654 37.9756 6.66028 37.8814 6.77541 37.8814C6.89054 37.8814 6.98428 37.9756 6.98428 38.0884C6.98428 38.2024 6.89054 38.2966 6.77541 38.2966C6.66028 38.2966 6.56654 38.2024 6.56654 38.0884ZM7.19316 36.9396C7.19316 36.6809 7.8613 35.5702 7.9563 35.6662C8.07017 35.7771 7.45991 37.0543 7.29256 37.0543C7.23908 37.0524 7.19316 37.0019 7.19316 36.9396ZM50.5626 35.5621C50.5594 35.367 50.6576 35.1482 50.7821 35.0734C51.1489 34.8465 51.203 35.0859 50.8771 35.5116C50.6072 35.8638 50.5689 35.8681 50.5626 35.5621ZM8.03305 35.2105C8.03305 35.0965 8.12805 34.9456 8.24318 34.8758C8.35706 34.8041 8.45206 34.839 8.45206 34.9537C8.45206 35.0684 8.35706 35.2199 8.24318 35.2903C8.12868 35.3601 8.03305 35.3252 8.03305 35.2105ZM48.7614 33.1125C48.7614 32.8843 48.8859 32.6955 49.0376 32.6955C49.2496 32.6955 49.2634 32.7946 49.0898 33.1125C48.8086 33.6311 48.7614 33.6311 48.7614 33.1125ZM21.7249 31.816C21.7495 31.6732 21.8388 31.4401 21.9294 31.2968C22.0338 31.131 21.9741 31.0368 21.7664 31.0368C21.5865 31.0368 21.4393 30.9016 21.4393 30.7327C21.4393 30.5363 21.5607 30.4752 21.7847 30.5625C22.1332 30.6946 22.1225 30.4316 21.7249 29.1046C21.645 28.8428 21.7451 28.6938 22.0489 28.6159C22.2899 28.5536 22.4868 28.4395 22.4868 28.3616C22.4868 28.2855 22.656 28.2095 22.8674 28.1958C23.5047 28.1472 25.0052 27.4272 24.9316 27.2035C24.8932 27.0894 24.646 26.9816 24.383 26.9691C23.8256 26.9404 23.4966 26.5172 23.6501 26.0285C23.7098 25.8384 23.6608 25.6209 23.5412 25.548C23.4198 25.4732 23.3229 25.586 23.3229 25.8023C23.3229 26.0154 23.1845 26.3701 23.0159 26.592C22.5352 27.2222 22.6133 26.5085 23.114 25.6926C23.6903 24.7595 23.6425 24.4765 22.8788 24.3244C21.8495 24.1206 21.796 24.163 22.4119 24.6865C22.9756 25.1671 22.9788 25.1902 22.6284 25.7244C22.4302 26.0242 22.1276 26.2691 21.959 26.2691C21.7885 26.2691 21.6488 26.3527 21.6488 26.453C21.6488 26.5534 21.4569 26.6861 21.2216 26.7466C20.9895 26.8077 20.8133 26.9354 20.8328 27.0314C20.9234 27.4908 20.5151 28.5529 20.249 28.5529C20.0829 28.5529 19.9986 28.6352 20.0602 28.7325C20.1219 28.8316 20.432 28.8708 20.7516 28.8235C21.2833 28.7399 21.3028 28.7593 20.9681 29.0292C20.7667 29.1906 20.6013 29.4418 20.6013 29.5833C20.6013 29.9074 19.5984 29.6899 19.1178 29.2623C18.9378 29.1008 18.6264 28.9687 18.4295 28.9687C18.13 28.9687 18.1118 28.897 18.31 28.5286C18.4408 28.2868 18.7277 28.0431 18.946 27.9851C19.1643 27.929 19.3436 27.795 19.3436 27.6865C19.3436 27.5818 19.2637 27.5407 19.1656 27.6011C19.0675 27.6604 18.88 27.4796 18.751 27.1979C18.622 26.9149 18.4333 26.6867 18.3288 26.6867C18.0124 26.6867 17.046 27.5282 17.097 27.7595C17.1234 27.881 17.0108 28.0287 16.8497 28.0867C16.6453 28.1615 16.5962 28.088 16.6855 27.8555C16.7592 27.6685 16.7252 27.5164 16.6151 27.5164C16.505 27.5164 16.4125 27.3612 16.4125 27.1711C16.4125 26.8532 16.3848 26.8532 16.0287 27.1711C15.8186 27.3612 15.5449 27.5164 15.4235 27.5164C15.3008 27.5164 14.7384 27.9271 14.1747 28.4277C13.3329 29.1763 13.0429 29.3196 12.559 29.2299C12.0903 29.1414 11.8645 29.2405 11.4549 29.7185L10.939 30.3182L11.3077 29.6487C11.5103 29.2835 12.4842 27.9109 13.4688 26.602C22.768 14.2473 36.3303 5.74345 51.5195 2.74407C57.4422 1.57225 64.5571 1.08669 68.0821 1.60902C69.0988 1.75986 69.7153 1.91632 69.4492 1.96057C69.1818 2.00296 68.9119 2.17063 68.849 2.33331C68.7817 2.50659 68.4464 2.62689 68.0362 2.62689C67.2699 2.62689 66.8811 2.95413 67.4681 3.10622C67.7751 3.18663 67.765 3.20533 67.4083 3.22465C67.173 3.23961 66.8679 3.35991 66.7307 3.49579C66.5602 3.66346 65.1566 3.75883 62.2381 3.79685C57.1817 3.86541 56.8313 3.90343 55.3616 4.54732C54.735 4.82095 53.7353 5.10269 53.1389 5.1725C52.5412 5.24231 51.8806 5.3919 51.6705 5.50597C51.4616 5.61879 51.0099 5.77088 50.6708 5.84381C50.2128 5.9398 50.1304 6.0202 50.348 6.15297C50.5078 6.25021 50.7148 6.28823 50.8061 6.23213C50.8954 6.17728 51.3006 6.22153 51.7045 6.33124C52.1455 6.45278 52.4846 6.4559 52.5569 6.3437C52.623 6.23899 52.5569 6.15359 52.4129 6.15359C52.2468 6.15359 52.2222 6.08191 52.3455 5.96348C52.7035 5.62128 54.0077 5.63936 54.5129 5.98966C54.969 6.3063 54.9753 6.33809 54.6098 6.52384C54.2197 6.7233 52.7759 7.0655 51.366 7.28802C50.7947 7.38089 50.5689 7.53174 50.4795 7.88889C50.3657 8.33643 50.2524 8.36947 48.8343 8.36947C47.2017 8.36947 45.2741 8.81077 45.3892 9.1592C45.4842 9.44406 46.5411 9.55189 46.8545 9.30818C47.7082 8.63874 49.8422 8.50597 49.5975 9.13926C49.4717 9.46463 50.0662 9.76195 50.2518 9.4665C50.3191 9.35679 50.5557 9.26704 50.7815 9.26704C51.0137 9.26704 51.1886 9.1243 51.1886 8.93357C51.1886 8.71291 51.3024 8.64123 51.5189 8.72538C51.7019 8.79394 51.9907 8.85191 52.1625 8.85191C52.4343 8.85191 52.4343 8.89118 52.153 9.16855C51.6428 9.67406 51.9366 10.0225 52.7922 9.92339C53.3163 9.8623 53.5032 9.90843 53.4038 10.0692C53.3043 10.2301 53.5604 10.3036 54.221 10.3036C54.8816 10.3036 55.2194 10.4008 55.3037 10.6128C55.3698 10.7829 55.5554 10.9244 55.7152 10.9244C55.9763 10.9244 56.0958 11.1787 55.9549 11.4343C55.926 11.486 56.0883 11.6624 56.3141 11.8251C56.6677 12.0807 56.6904 12.1979 56.4783 12.6591C56.3418 12.9514 55.9989 13.2513 55.7183 13.3211L55.2062 13.4482L55.6579 13.897C55.9083 14.1438 56.3166 14.3626 56.567 14.3857C56.8174 14.4069 57.3151 14.5727 57.6731 14.7553C58.1845 15.0171 58.3072 15.201 58.2519 15.6149C58.2135 15.9041 58.0461 16.2263 57.8801 16.3285C57.6529 16.4732 57.6448 16.5187 57.8524 16.5205C58.0027 16.5218 58.0675 16.6196 57.9964 16.7337C57.926 16.8465 58.0147 16.9406 58.1934 16.9406C58.3745 16.9406 58.5205 17.0809 58.5205 17.251C58.5205 17.42 58.3915 17.5615 58.2317 17.5615C57.7939 17.5615 56.0059 18.3861 56.0059 18.5887C56.0059 18.6878 55.7938 18.727 55.534 18.6815C55.2742 18.6342 55.1804 18.6479 55.3239 18.7165C55.5158 18.8075 55.5252 18.9446 55.3591 19.255C55.2345 19.4831 55.0779 19.6171 55.0118 19.5517C54.9458 19.4875 54.786 19.5779 54.657 19.7543C54.5261 19.9294 54.2512 20.0983 54.0423 20.1289C53.5982 20.1931 53.2773 20.6344 53.417 20.9915C53.5013 21.2109 53.0684 21.4179 52.3355 21.5108C52.2216 21.5257 51.9945 21.646 51.8378 21.7769C51.6768 21.9066 51.4169 22.0156 51.2615 22.0175C50.9375 22.0206 49.2999 23.5284 49.2999 23.8251C49.2999 23.9298 49.0986 23.956 48.8532 23.88C48.5688 23.789 48.4569 23.8176 48.5462 23.956C48.655 24.1324 47.0149 24.5588 46.5789 24.4659C44.7664 24.0869 44.0397 24.0614 42.2303 24.3063C41.4898 24.4085 41.0356 24.378 40.8355 24.2134C40.6053 24.0246 40.3687 24.0402 39.7868 24.2801C39.3734 24.4503 39.0343 24.6759 39.0343 24.7775C39.0343 24.8779 38.7411 24.9726 38.3813 24.9832C38.0233 24.9938 37.0909 25.3348 36.3095 25.7393C34.631 26.6144 34.3171 26.6612 34.5278 26.0129C34.6109 25.7555 34.6983 25.2488 34.726 24.8854C34.7858 24.0408 35.4847 23.1413 37.4155 21.4322C39.2218 19.8297 41.7578 18.5214 41.7578 19.1908C41.7578 19.288 41.9956 19.3248 42.2876 19.27C42.7808 19.1758 42.7896 19.1497 42.4442 18.8835C42.0894 18.6111 42.0925 18.5824 42.492 18.272C42.7223 18.0925 43.1677 17.9816 43.4829 18.0271C43.9038 18.0863 44.0913 18.0028 44.18 17.7241C44.2524 17.496 45.0249 17.0073 46.0662 16.5236C48.092 15.5893 48.9061 14.9061 48.74 14.2772C48.6494 13.9425 48.8073 13.7642 49.4817 13.422C49.9517 13.1846 50.4078 13.005 50.4972 13.025C50.5877 13.0449 50.823 12.9901 51.0212 12.9034C51.2546 12.8031 51.6522 12.9128 52.1423 13.2107C52.7551 13.5853 52.9382 13.6215 53.0779 13.3965C53.4635 12.7788 51.8032 12.3574 48.304 12.1885C47.6818 12.1567 47.7082 11.7198 48.3763 10.9344C48.7802 10.4582 48.8369 10.298 48.5978 10.298C48.4229 10.298 48.2184 10.3952 48.1417 10.5155C48.0511 10.6601 47.8221 10.6146 47.466 10.3859C46.9916 10.0786 46.7582 10.0649 45.5339 10.2824C44.7689 10.4177 43.8629 10.71 43.5263 10.9307C43.1866 11.1526 42.7412 11.3327 42.5323 11.3352C42.3234 11.3352 42.2114 11.4293 42.2819 11.5434C42.4983 11.8887 43.2281 11.7746 43.9164 11.2909C44.6305 10.7873 47.0684 10.495 47.4446 10.8677C47.8252 11.2448 46.6317 12.6435 45.4018 13.2631C44.7708 13.581 44.1989 13.978 44.1347 14.1445C44.0705 14.3109 43.8856 14.4474 43.7245 14.4474C43.5647 14.4474 43.4294 14.5633 43.4263 14.7061C43.42 14.989 41.7503 15.8991 41.2375 15.8991C41.0639 15.8991 40.6613 16.1976 40.3454 16.5623C39.0104 18.0975 38.8846 18.1798 37.9648 18.1449L37.0846 18.1112L37.7452 17.5284C38.1076 17.2055 38.4058 16.892 38.4058 16.8284C38.4058 16.6109 37.4999 17.1968 36.8424 17.8419C36.4781 18.1979 35.8257 18.5968 35.3922 18.7246C34.8468 18.886 34.6731 18.8891 34.8285 18.737C35.2186 18.3518 35.0726 18.1006 34.6706 18.4603C34.0302 19.0337 33.9547 18.8467 34.4649 17.946C34.7304 17.4742 35.3419 16.7698 35.8213 16.3784C36.302 15.9876 36.7921 15.3923 36.9103 15.0557C37.0362 14.7042 37.3589 14.357 37.6754 14.2386C38.3819 13.9724 38.4052 13.9755 38.4052 14.3495C38.4052 14.7834 39.0305 14.9903 39.2608 14.6325C39.3929 14.4268 39.4464 14.4181 39.4495 14.6038C39.4508 14.7453 39.5552 14.8625 39.6848 14.8625C39.817 14.8625 39.8692 14.6786 39.8063 14.4362C39.7251 14.1289 39.8214 13.9612 40.1579 13.8353C40.4115 13.7393 40.7462 13.5112 40.9016 13.3285C41.0551 13.1472 41.4036 12.9951 41.6773 12.9951C41.9522 12.9951 42.1737 12.9115 42.1737 12.8093C42.1737 12.7027 41.8497 12.7015 41.3885 12.8062C40.9582 12.9084 40.2089 12.9359 39.7295 12.8673C38.9771 12.7638 38.7191 12.8386 37.8817 13.4108C37.3457 13.7742 36.8449 14.0104 36.7669 13.9325C36.687 13.8546 36.7946 13.6695 37.0022 13.5168C37.2589 13.331 37.3048 13.1958 37.1463 13.0985C36.7732 12.8704 37.5577 12.1337 38.0189 12.2801C38.5839 12.4584 38.8852 12.1979 38.526 11.8432C38.3599 11.6786 38.1359 11.5446 38.0271 11.5446C37.9163 11.5446 37.7106 11.4044 37.5678 11.2342C37.2394 10.8415 36.1592 10.8372 35.4728 11.2249C35.184 11.3875 34.6278 11.6662 34.2365 11.8457C33.8433 12.0239 33.1261 12.5214 32.6392 12.9477C32.1509 13.3722 31.3582 14.036 30.8744 14.4206C30.3906 14.8052 29.8942 15.3369 29.7734 15.5999C29.6526 15.8629 29.2632 16.1976 28.9103 16.3441C28.5567 16.4887 27.981 16.8552 27.6293 17.1569C27.2758 17.4599 26.7184 17.8463 26.3868 18.0183C25.9043 18.2633 25.8508 18.3518 26.1245 18.4534C26.3119 18.5263 26.4667 18.4927 26.4667 18.3817C26.4667 18.2739 26.5649 18.181 26.6882 18.181C26.8115 18.181 27.2563 17.9479 27.6822 17.6606C28.1094 17.3745 28.4888 17.2361 28.5271 17.3502C28.7146 17.9055 30.748 17.2498 31.5482 16.3716C31.7496 16.1509 32.127 15.9882 32.3856 16.0107C32.6454 16.0337 33.0462 15.9514 33.2752 15.828C33.7634 15.5662 35.0859 15.0794 35.3224 15.0751C35.4118 15.0738 35.3407 15.2914 35.1645 15.5575C34.9896 15.8224 34.894 16.0898 34.9569 16.1528C35.0185 16.2139 34.7354 16.5529 34.3303 16.9076C33.922 17.2604 33.5885 17.6456 33.5885 17.7615C33.5885 17.8756 33.2368 18.1175 32.8065 18.297C31.9773 18.6392 31.0758 19.3697 31.0758 19.7013C31.0758 19.8122 31.4966 19.8521 32.0648 19.7879C32.9078 19.6938 33.0003 19.7162 32.687 19.9444C32.3258 20.2062 30.6643 21.6853 29.1758 23.0734C28.7624 23.4567 28.3019 24.1449 28.1484 24.5999C27.9961 25.058 27.803 25.3884 27.7199 25.3379C27.6338 25.2862 27.4513 25.5143 27.3129 25.8459C26.9411 26.7379 25.7476 27.7588 25.4343 27.4497C25.2456 27.2658 25.2191 27.2882 25.3173 27.5469C25.4142 27.7919 25.2726 27.9458 24.8071 28.1054C24.4535 28.227 24.1666 28.4719 24.1666 28.6489C24.1666 28.8272 24.0527 28.9699 23.9149 28.9699C23.7293 28.9699 23.7243 29.031 23.8998 29.2043C24.198 29.4998 24.0106 29.976 23.3607 30.5737C23.0782 30.8324 22.9228 31.0456 23.0134 31.0456C23.104 31.0456 22.924 31.2787 22.6139 31.5648C21.9936 32.1233 21.6633 32.2205 21.7249 31.816ZM19.4361 23.0522C19.5362 22.6365 19.5148 22.5 19.3745 22.6365C19.2606 22.7493 19.0983 23.1233 19.0184 23.4642C18.9183 23.8812 18.9416 24.0183 19.08 23.8812C19.1952 23.7672 19.3562 23.3944 19.4361 23.0522ZM18.8775 22.6246C18.9051 22.3186 18.8359 22.1484 18.7132 22.2213C18.4704 22.3722 18.4308 23.1557 18.6705 23.1557C18.7604 23.1538 18.8542 22.9163 18.8775 22.6246ZM21.1241 20.6674C21.5695 20.1806 21.204 20.0996 20.7202 20.5777C20.3503 20.9429 20.3087 21.0813 20.5679 21.0813C20.6667 21.0813 20.9152 20.8943 21.1241 20.6674ZM22.3824 18.7987C22.5466 18.5357 22.2704 18.5357 21.8583 18.7987C21.5865 18.9708 21.5928 19.0013 21.8979 19.0044C22.0936 19.0057 22.31 18.914 22.3824 18.7987ZM24.4208 17.5097C24.7819 17.1762 24.9706 16.8415 24.88 16.6988C24.7787 16.5374 24.8171 16.5087 24.9952 16.6184C25.1751 16.7262 25.2317 16.6869 25.1669 16.4937C25.0423 16.1253 24.7416 16.1833 24.4755 16.629C24.3616 16.8222 24.0087 17.2423 23.6903 17.5621C23.3739 17.8831 23.114 18.2577 23.114 18.3942C23.1147 18.6635 23.3223 18.5245 24.4208 17.5097ZM42.9104 12.992C42.8381 12.8779 42.6864 12.785 42.5694 12.785C42.4555 12.785 42.4191 12.8779 42.4895 12.992C42.56 13.106 42.7135 13.2001 42.8293 13.2001C42.945 13.2001 42.9815 13.106 42.9104 12.992ZM51.5686 10.5068C51.8699 10.5099 51.8743 10.5373 51.6025 10.7106C51.3289 10.8858 51.332 10.9132 51.6315 10.9145C51.8158 10.9176 52.0813 10.7867 52.2185 10.624C52.4122 10.3909 52.3814 10.3061 52.0618 10.2039C51.5107 10.0306 50.9715 10.2693 50.991 10.6801C51.0017 10.8976 51.0464 10.925 51.1124 10.7624C51.1728 10.6178 51.3767 10.5049 51.5686 10.5068ZM45.3728 8.63625C45.5496 8.63625 45.7478 8.496 45.8139 8.32584C45.9768 7.90884 45.7692 7.93502 44.9413 8.43242C44.5329 8.67925 44.3115 8.94541 44.3977 9.08503C44.5009 9.24772 44.6235 9.21593 44.7972 8.97844C44.9381 8.7902 45.1961 8.63625 45.3728 8.63625ZM47.7271 6.77067C47.7994 6.65661 47.7642 6.56248 47.6472 6.56248C47.532 6.56248 47.3798 6.65661 47.3074 6.77067C47.2351 6.88349 47.2735 6.97761 47.3886 6.97761C47.5037 6.97761 47.6566 6.88349 47.7271 6.77067ZM49.5088 5.11017C49.5088 4.9961 49.3672 4.90198 49.1955 4.90198C49.0237 4.90198 48.8822 4.9961 48.8822 5.11017C48.8822 5.22299 49.0237 5.31711 49.1955 5.31711C49.3672 5.31711 49.5088 5.22299 49.5088 5.11017ZM44.4832 29.4754C44.4832 29.3003 44.3404 29.104 44.1687 29.0385C43.7616 28.8833 43.7616 28.5498 44.1687 28.5498C44.3404 28.5498 44.4832 28.4083 44.4832 28.2394C44.4832 28.0674 44.3832 27.9278 44.2593 27.9278C44.1379 27.9278 44.0951 27.8393 44.1624 27.7302C44.2297 27.6211 44.4405 27.5899 44.6292 27.6616C44.8978 27.7638 44.9394 27.709 44.8261 27.4104C44.6619 26.9891 44.9815 26.6924 45.6063 26.6874C45.895 26.6843 45.9674 26.7908 45.8875 27.0981C45.8032 27.4179 45.8812 27.5151 46.2297 27.5164C46.477 27.5164 47.0426 27.6136 47.4786 27.7358C48.2115 27.9384 48.2713 28.0094 48.2128 28.614C48.1285 29.4736 47.4773 29.7902 45.7906 29.7952C44.7538 29.7933 44.4832 29.7266 44.4832 29.4754ZM73.3196 27.7875C73.0309 27.5027 73.1957 27.0969 73.599 27.0969C73.8783 27.0969 74.0186 27.2353 74.0186 27.5126C74.0192 27.9109 73.6084 28.0724 73.3196 27.7875ZM61.8964 21.9652C61.7656 21.7214 61.6599 21.378 61.6599 21.1985C61.6599 21.0221 61.5649 20.8744 61.4498 20.8744C61.2038 20.8744 61.1748 20.0541 61.4114 19.6857C61.5064 19.538 61.8568 19.4663 62.2456 19.5155C62.6143 19.5629 62.9169 19.5168 62.9169 19.4183C62.9169 19.2251 64.3255 19.2968 64.5313 19.5006C64.737 19.7013 64.1242 20.2785 63.826 20.1638C63.4403 20.0179 63.4712 20.453 63.8795 20.8974C64.2695 21.325 64.1204 21.6915 63.5725 21.6491C63.3114 21.6292 63.2176 21.5002 63.2837 21.2471C63.4529 20.6107 63.044 20.8407 62.5784 21.6429C62.1519 22.3778 62.1273 22.3903 61.8964 21.9652ZM33.742 19.1864C33.8836 19.0449 34.0509 18.9826 34.1151 19.0462C34.1793 19.1098 34.066 19.2257 33.8572 19.3036C33.5608 19.4183 33.5382 19.394 33.742 19.1864ZM77.1568 18.8978C76.7717 18.4397 76.9907 18.3867 77.4229 18.8336C77.6236 19.0437 77.7066 19.2139 77.6053 19.2139C77.5028 19.2139 77.3008 19.0724 77.1568 18.8978ZM67.7996 18.8748C67.6266 18.805 67.6556 18.6666 67.9041 18.4185C68.1519 18.1704 68.33 18.1262 68.4967 18.2758C68.6288 18.393 68.6873 18.5712 68.6257 18.6716C68.5628 18.7719 68.6439 18.8099 68.8037 18.7551C68.9881 18.6928 69.0711 18.4216 69.0296 18.0034C68.9648 17.3701 68.9805 17.3564 69.5348 17.5652C69.9481 17.7216 70.1494 17.716 70.2558 17.5421C70.3615 17.3701 70.4445 17.367 70.5477 17.5328C70.6276 17.6593 70.5861 17.7628 70.4565 17.7628C70.3269 17.7628 70.2803 17.8569 70.352 17.971C70.4244 18.0838 70.3583 18.1792 70.2079 18.181C70.0085 18.1841 70.0192 18.239 70.247 18.3849C70.503 18.5494 70.4753 18.5874 70.1054 18.5905C69.8575 18.5918 69.6059 18.4765 69.5474 18.3331C69.48 18.1717 69.4354 18.201 69.4247 18.4154C69.402 18.914 68.5181 19.164 67.7996 18.8748ZM29.4878 16.7505C29.5507 16.6502 29.815 16.5149 30.0761 16.4495C30.5341 16.3366 30.5366 16.3448 30.1453 16.6321C29.6935 16.9649 29.311 17.0348 29.4878 16.7505ZM34.8449 14.6506C35.2564 14.3875 35.5344 14.3875 35.369 14.6506C35.2985 14.7634 35.0815 14.8575 34.8864 14.8563C34.5794 14.8525 34.575 14.8251 34.8449 14.6506ZM35.8924 13.614C35.8924 13.5012 36.0352 13.4058 36.207 13.4058C36.3787 13.4058 36.5203 13.5018 36.5203 13.614C36.5203 13.7262 36.3787 13.8222 36.207 13.8222C36.034 13.8228 35.8924 13.7268 35.8924 13.614ZM54.5934 9.96203C54.6639 9.89347 54.8438 9.88599 54.9961 9.9452C55.1603 10.0106 55.1131 10.0611 54.8684 10.0699C54.6469 10.0805 54.5242 10.0306 54.5934 9.96203ZM53.1892 9.67905C52.9665 9.60113 52.8728 9.49018 52.9803 9.43222C53.2584 9.28013 55.0722 9.21156 54.925 9.35742C54.6683 9.61173 53.5761 9.81431 53.1892 9.67905ZM54.5884 8.70668C54.1417 8.52841 54.2996 8.18933 54.7985 8.25914C55.0565 8.29592 55.2452 8.42058 55.2163 8.53278C55.154 8.78522 54.9388 8.84319 54.5884 8.70668ZM51.6044 8.56768C51.6044 8.50223 51.8177 8.21925 52.0807 7.9425C52.4248 7.57724 52.8577 7.40084 53.6271 7.31981C54.2172 7.25748 54.9451 7.14466 55.2459 7.07048C55.6529 6.96826 55.7926 7.01439 55.7926 7.2394C55.7926 7.65328 55.2427 8.08835 54.9495 7.90884C54.8218 7.82968 54.2751 7.8328 53.7378 7.91632C52.9577 8.03662 52.8426 8.1002 53.1773 8.23421C53.5566 8.3863 53.5472 8.40188 53.0728 8.41809C52.7841 8.42744 52.3374 8.49101 52.0775 8.55958C51.8158 8.62877 51.6044 8.63188 51.6044 8.56768ZM71.6581 4.76485C71.7997 4.70875 72.084 4.70564 72.2866 4.75737C72.4904 4.81035 72.3741 4.85648 72.0287 4.86084C71.6826 4.86521 71.5153 4.82282 71.6581 4.76485Z" fill="#680B4E"/>
</g>
</g>
<defs>
<clipPath id="clip0_54617_115">
<rect width="128" height="128" fill="white"/>
</clipPath>
<clipPath id="clip1_54617_115">
<rect width="128" height="128" fill="white"/>
</clipPath>
</defs>
</svg>
