<?xml version="1.0" encoding="UTF-8"?>
<!DOCTYPE svg PUBLIC "-//W3C//DTD SVG 1.1//EN" "http://www.w3.org/Graphics/SVG/1.1/DTD/svg11.dtd">
<svg xmlns="http://www.w3.org/2000/svg" version="1.1" width="320px" height="180px" style="shape-rendering:geometricPrecision; text-rendering:geometricPrecision; image-rendering:optimizeQuality; fill-rule:evenodd; clip-rule:evenodd" xmlns:xlink="http://www.w3.org/1999/xlink">
<g><path style="opacity:1" fill="transparent" d="M -0.5,-0.5 C 106.167,-0.5 212.833,-0.5 319.5,-0.5C 319.5,59.5 319.5,119.5 319.5,179.5C 212.833,179.5 106.167,179.5 -0.5,179.5C -0.5,119.5 -0.5,59.5 -0.5,-0.5 Z"/></g>
<g><path style="opacity:1" fill="#b81d8b" d="M 76.5,39.5 C 76.3893,40.1174 76.056,40.6174 75.5,41C 71.9716,41.089 68.6382,41.7556 65.5,43C 66.8333,44 66.8333,45 65.5,46C 67.1247,46.8525 67.4581,47.8525 66.5,49C 67.428,49.3879 68.0946,50.0546 68.5,51C 66.4814,53.3508 64.1481,55.3508 61.5,57C 57.4775,57.1452 53.6442,57.9785 50,59.5C 49.2888,57.6332 49.7888,56.1332 51.5,55C 55.1649,53.503 58.4983,51.503 61.5,49C 61,48.5 60.5,48 60,47.5C 55.5018,50.8899 50.6684,53.7233 45.5,56C 44.6959,57.7713 43.5292,59.2713 42,60.5C 41.0853,59.6721 40.4186,58.6721 40,57.5C 39.4169,59.0016 38.5836,60.3349 37.5,61.5C 36.8076,60.9747 36.3076,60.3081 36,59.5C 34.6703,60.5822 33.1703,61.2488 31.5,61.5C 42.3328,45.9179 57.3328,38.5846 76.5,39.5 Z"/></g>
<g><path style="opacity:1" fill="#545152" d="M 76.5,39.5 C 77.4916,39.3284 78.1583,39.6618 78.5,40.5C 81.8239,42.1673 84.8239,44.3339 87.5,47C 85.5839,48.8173 83.2506,49.984 80.5,50.5C 81.2739,51.7112 82.1072,51.7112 83,50.5C 83.8699,51.1079 84.3699,51.9412 84.5,53C 83.3047,54.5325 83.3047,56.0325 84.5,57.5C 84.0431,58.2975 83.3764,58.6309 82.5,58.5C 81.5943,59.9649 80.261,60.9649 78.5,61.5C 75.9876,59.5333 73.321,59.2 70.5,60.5C 69.1413,62.6922 67.3079,64.3589 65,65.5C 64.5038,67.0349 64.6705,68.5349 65.5,70C 64.4647,71.2737 63.298,72.4404 62,73.5C 62.291,65.2753 60.1243,64.442 55.5,71C 56.9743,72.3161 58.641,73.3161 60.5,74C 59.1667,74.3333 57.8333,74.6667 56.5,75C 57.3366,76.0113 57.67,77.1779 57.5,78.5C 52.458,77.196 50.7913,79.196 52.5,84.5C 49.0931,87.6184 45.5931,90.6184 42,93.5C 41.5639,95.8474 41.0639,98.1807 40.5,100.5C 41.7727,103.542 43.4393,106.376 45.5,109C 50.7381,109.496 55.5715,110.996 60,113.5C 60.275,117.069 61.4417,120.236 63.5,123C 62.8774,127.442 64.544,131.109 68.5,134C 71.5,134.667 74.5,134.667 77.5,134C 80.7771,131.266 83.9438,128.432 87,125.5C 87.3333,122.833 87.6667,120.167 88,117.5C 92.0052,114.5 94.8386,110.667 96.5,106C 96.1667,105.5 95.8333,105 95.5,104.5C 93.6687,105.929 91.6687,106.429 89.5,106C 94.8462,103.987 98.5129,100.32 100.5,95C 100.095,94.0546 99.428,93.3879 98.5,93C 100.421,92.6397 102.088,91.8064 103.5,90.5C 104.912,91.8064 106.579,92.6397 108.5,93C 110,95.1667 111.5,97.3333 113,99.5C 113.667,98.1667 114.333,98.1667 115,99.5C 114.566,95.5478 114.566,91.5478 115,87.5C 117.107,83.6584 118.94,83.9917 120.5,88.5C 121.69,90.359 121.69,92.1923 120.5,94C 120.808,95.4595 121.475,96.6261 122.5,97.5C 117.058,120.239 102.725,133.406 79.5,137C 63.4206,139.306 49.4206,134.973 37.5,124C 34.198,120.544 31.5313,116.711 29.5,112.5C 29.5191,110.94 29.8524,109.44 30.5,108C 25.6023,100.246 23.269,91.7462 23.5,82.5C 24.2148,74.6796 26.8814,67.6796 31.5,61.5C 33.1703,61.2488 34.6703,60.5822 36,59.5C 36.3076,60.3081 36.8076,60.9747 37.5,61.5C 38.5836,60.3349 39.4169,59.0016 40,57.5C 40.4186,58.6721 41.0853,59.6721 42,60.5C 43.5292,59.2713 44.6959,57.7713 45.5,56C 50.6684,53.7233 55.5018,50.8899 60,47.5C 60.5,48 61,48.5 61.5,49C 58.4983,51.503 55.1649,53.503 51.5,55C 49.7888,56.1332 49.2888,57.6332 50,59.5C 53.6442,57.9785 57.4775,57.1452 61.5,57C 64.1481,55.3508 66.4814,53.3508 68.5,51C 68.0946,50.0546 67.428,49.3879 66.5,49C 67.4581,47.8525 67.1247,46.8525 65.5,46C 66.8333,45 66.8333,44 65.5,43C 68.6382,41.7556 71.9716,41.089 75.5,41C 76.056,40.6174 76.3893,40.1174 76.5,39.5 Z"/></g>
<g><path style="opacity:1" fill="#c41792" d="M 78.5,40.5 C 83.6257,40.8753 88.6257,41.8753 93.5,43.5C 95.3688,47.0107 98.3688,49.0107 102.5,49.5C 106.589,52.3146 110.255,55.6479 113.5,59.5C 114.641,60.4255 114.641,61.2588 113.5,62C 115.917,63.6626 117.75,65.8293 119,68.5C 119.925,73.6244 121.092,78.6244 122.5,83.5C 123.012,88.0891 123.012,92.7558 122.5,97.5C 121.475,96.6261 120.808,95.4595 120.5,94C 121.69,92.1923 121.69,90.359 120.5,88.5C 118.94,83.9917 117.107,83.6584 115,87.5C 114.566,91.5478 114.566,95.5478 115,99.5C 114.333,98.1667 113.667,98.1667 113,99.5C 111.5,97.3333 110,95.1667 108.5,93C 106.579,92.6397 104.912,91.8064 103.5,90.5C 102.088,91.8064 100.421,92.6397 98.5,93C 99.428,93.3879 100.095,94.0546 100.5,95C 98.5129,100.32 94.8462,103.987 89.5,106C 91.6687,106.429 93.6687,105.929 95.5,104.5C 95.8333,105 96.1667,105.5 96.5,106C 94.8386,110.667 92.0052,114.5 88,117.5C 87.6667,120.167 87.3333,122.833 87,125.5C 83.9438,128.432 80.7771,131.266 77.5,134C 74.5,134.667 71.5,134.667 68.5,134C 64.544,131.109 62.8774,127.442 63.5,123C 61.4417,120.236 60.275,117.069 60,113.5C 55.5715,110.996 50.7381,109.496 45.5,109C 43.4393,106.376 41.7727,103.542 40.5,100.5C 41.0639,98.1807 41.5639,95.8474 42,93.5C 45.5931,90.6184 49.0931,87.6184 52.5,84.5C 50.7913,79.196 52.458,77.196 57.5,78.5C 57.67,77.1779 57.3366,76.0113 56.5,75C 57.8333,74.6667 59.1667,74.3333 60.5,74C 58.641,73.3161 56.9743,72.3161 55.5,71C 60.1243,64.442 62.291,65.2753 62,73.5C 63.298,72.4404 64.4647,71.2737 65.5,70C 64.6705,68.5349 64.5038,67.0349 65,65.5C 67.3079,64.3589 69.1413,62.6922 70.5,60.5C 73.321,59.2 75.9876,59.5333 78.5,61.5C 80.261,60.9649 81.5943,59.9649 82.5,58.5C 83.3764,58.6309 84.0431,58.2975 84.5,57.5C 83.3047,56.0325 83.3047,54.5325 84.5,53C 84.3699,51.9412 83.8699,51.1079 83,50.5C 82.1072,51.7112 81.2739,51.7112 80.5,50.5C 83.2506,49.984 85.5839,48.8173 87.5,47C 84.8239,44.3339 81.8239,42.1673 78.5,40.5 Z"/></g>
<g><path style="opacity:1" fill="#57414f" d="M 93.5,43.5 C 96.7841,45.2919 99.7841,47.2919 102.5,49.5C 98.3688,49.0107 95.3688,47.0107 93.5,43.5 Z"/></g>
<g><path style="opacity:1" fill="#67485d" d="M 49.5,47.5 C 51.3084,47.4914 52.9751,47.9914 54.5,49C 53.7471,50.487 52.9138,50.6537 52,49.5C 51.3333,50.1667 50.6667,50.8333 50,51.5C 48.575,50.7877 47.075,50.621 45.5,51C 46.7305,49.5952 48.0639,48.4286 49.5,47.5 Z"/></g>
<g><path style="opacity:1" fill="#992e7a" d="M 70.5,53.5 C 71.675,53.281 72.675,53.6143 73.5,54.5C 71.9483,55.7979 70.9483,55.4646 70.5,53.5 Z"/></g>
<g><path style="opacity:1" fill="#9b2e7b" d="M 82.5,58.5 C 79.2906,57.7033 78.7906,56.0366 81,53.5C 81.3519,55.2475 81.8519,56.9142 82.5,58.5 Z"/></g>
<g><path style="opacity:1" fill="#c01890" d="M 57.5,59.5 C 58.4734,59.9867 59.4734,60.4867 60.5,61C 58.8425,61.7252 57.8425,61.2252 57.5,59.5 Z"/></g>
<g><path style="opacity:1" fill="#751057" d="M 226.5,75.5 C 223.941,75.1984 221.607,75.5318 219.5,76.5C 218.957,76.44 218.624,76.1067 218.5,75.5C 221.309,74.1997 223.976,74.1997 226.5,75.5 Z"/></g>
<g><path style="opacity:1" fill="#781059" d="M 252.5,75.5 C 249.287,75.19 246.287,75.5233 243.5,76.5C 242.957,76.44 242.624,76.1067 242.5,75.5C 245.98,74.1944 249.313,74.1944 252.5,75.5 Z"/></g>
<g><path style="opacity:1" fill="#860e63" d="M 275.5,75.5 C 278.024,74.1997 280.691,74.1997 283.5,75.5C 283.043,76.2975 282.376,76.6309 281.5,76.5C 279.735,75.5386 277.735,75.2053 275.5,75.5 Z"/></g>
<g><path style="opacity:1" fill="#e508a6" d="M 219.5,76.5 C 221.607,75.5318 223.941,75.1984 226.5,75.5C 225.909,76.1515 225.243,76.8182 224.5,77.5C 226.431,82.1271 228.265,86.7938 230,91.5C 232.411,87.2749 234.244,82.7749 235.5,78C 234.978,77.0497 234.311,76.2164 233.5,75.5C 235.833,74.1667 238.167,74.1667 240.5,75.5C 239.758,76.2868 238.925,76.9535 238,77.5C 235.256,83.9095 232.422,90.2429 229.5,96.5C 227.043,91.2967 224.876,85.9633 223,80.5C 222.502,78.4556 221.335,77.1223 219.5,76.5 Z"/></g>
<g><path style="opacity:1" fill="#e30aa4" d="M 243.5,76.5 C 246.287,75.5233 249.287,75.19 252.5,75.5C 257.288,76.123 259.121,78.7897 258,83.5C 255.85,86.963 252.684,88.2964 248.5,87.5C 247.963,90.9721 248.963,93.8055 251.5,96C 248.5,96.6667 245.5,96.6667 242.5,96C 243.416,95.6258 244.25,95.1258 245,94.5C 245.167,91.5 245.333,88.5 245.5,85.5C 245.483,82.0866 244.816,79.0866 243.5,76.5 Z"/></g>
<g><path style="opacity:1" fill="#e608a6" d="M 275.5,75.5 C 277.735,75.2053 279.735,75.5386 281.5,76.5C 280.833,83.0119 280.167,89.6786 279.5,96.5C 274.773,91.3921 270.273,86.0588 266,80.5C 265.333,85.1667 265.333,89.8333 266,94.5C 266.75,95.1258 267.584,95.6258 268.5,96C 265.833,96.6667 263.167,96.6667 260.5,96C 261.416,95.6258 262.25,95.1258 263,94.5C 263.499,88.5092 263.666,82.5092 263.5,76.5C 262.325,76.719 261.325,76.3857 260.5,75.5C 262.167,74.1667 263.833,74.1667 265.5,75.5C 269.478,80.6461 273.645,85.6461 278,90.5C 278.499,85.8452 278.666,81.1785 278.5,76.5C 277.209,76.7373 276.209,76.404 275.5,75.5 Z"/></g>
<g><path style="opacity:1" fill="#1f181b" d="M 248.5,76.5 C 255.564,76.4752 257.231,79.4752 253.5,85.5C 251.929,86.3094 250.262,86.6427 248.5,86.5C 248.5,83.1667 248.5,79.8333 248.5,76.5 Z"/></g>
<g><path style="opacity:1" fill="#e908a8" d="M 180.5,77.5 C 181.434,78.5676 181.768,79.901 181.5,81.5C 186.833,82.1667 186.833,82.8333 181.5,83.5C 181.335,86.8499 181.502,90.1832 182,93.5C 186.245,94.3592 186.411,95.3592 182.5,96.5C 181.558,96.3918 180.725,96.0585 180,95.5C 179.501,91.5138 179.334,87.5138 179.5,83.5C 178.448,83.6495 177.448,83.4828 176.5,83C 178.588,81.7005 179.921,79.8671 180.5,77.5 Z"/></g>
<g><path style="opacity:1" fill="#624b5a" d="M 76.5,79.5 C 78.0861,80.4132 79.5861,80.4132 81,79.5C 82.2051,80.0712 83.3717,80.7379 84.5,81.5C 81.9135,82.48 79.2469,82.8134 76.5,82.5C 76.5,81.5 76.5,80.5 76.5,79.5 Z"/></g>
<g><path style="opacity:1" fill="#654a5b" d="M 87.5,77.5 C 90.7502,79.0181 92.0836,81.3514 91.5,84.5C 90.1204,82.1382 88.7871,79.8048 87.5,77.5 Z"/></g>
<g><path style="opacity:1" fill="#5c4d57" d="M 67.5,85.5 C 62.8215,85.6658 58.1548,85.4992 53.5,85C 56.3234,83.5168 59.1568,82.0168 62,80.5C 62.5,80.8333 63,81.1667 63.5,81.5C 62.1697,84.8488 62.6697,85.1821 65,82.5C 66.417,83.0779 67.2504,84.0779 67.5,85.5 Z"/></g>
<g><path style="opacity:1" fill="#751257" d="M 208.5,83.5 C 207.167,82.1667 205.833,82.1667 204.5,83.5C 203.624,83.6309 202.957,83.2975 202.5,82.5C 204.833,81.1667 207.167,81.1667 209.5,82.5C 209.376,83.1067 209.043,83.44 208.5,83.5 Z"/></g>
<g><path style="opacity:1" fill="#761058" d="M 217.5,83.5 C 216.167,82.1667 214.833,82.1667 213.5,83.5C 212.957,83.44 212.624,83.1067 212.5,82.5C 214.5,81.1667 216.5,81.1667 218.5,82.5C 218.376,83.1067 218.043,83.44 217.5,83.5 Z"/></g>
<g><path style="opacity:1" fill="#eb08a9" d="M 204.5,83.5 C 205.833,82.1667 207.167,82.1667 208.5,83.5C 209.022,86.5682 209.855,89.5682 211,92.5C 211.383,91.944 211.883,91.6107 212.5,91.5C 212.617,93.4835 211.95,95.1502 210.5,96.5C 208.48,92.0743 206.48,87.741 204.5,83.5 Z"/></g>
<g><path style="opacity:1" fill="#e408a5" d="M 213.5,83.5 C 214.833,82.1667 216.167,82.1667 217.5,83.5C 215.837,86.1293 214.171,88.796 212.5,91.5C 212.756,89.0628 213.423,86.7294 214.5,84.5C 214.376,83.8933 214.043,83.56 213.5,83.5 Z"/></g>
<g><path style="opacity:1" fill="#e309a4" d="M 168.5,81.5 C 170.199,81.3398 171.866,81.5065 173.5,82C 174.517,83.0495 174.684,84.2161 174,85.5C 172.981,84.3128 171.814,83.3128 170.5,82.5C 169.28,82.8869 168.613,83.7202 168.5,85C 170.29,87.1642 172.456,88.9975 175,90.5C 175.677,92.9815 174.844,94.8149 172.5,96C 170.231,96.7581 168.064,96.5914 166,95.5C 165.333,94.1667 165.333,92.8333 166,91.5C 167.698,95.8656 169.865,96.3656 172.5,93C 169.75,90.9431 167.416,88.4431 165.5,85.5C 166.524,84.1482 167.524,82.8149 168.5,81.5 Z"/></g>
<g><path style="opacity:1" fill="#ea07a9" d="M 153.5,81.5 C 161.108,81.3599 163.941,85.0266 162,92.5C 159.839,96.1241 156.672,97.2907 152.5,96C 147.003,90.6829 147.336,85.8495 153.5,81.5 Z"/></g>
<g><path style="opacity:1" fill="#1c1819" d="M 154.5,82.5 C 158.348,83.1759 160.015,85.5092 159.5,89.5C 159.517,95.0277 157.35,96.3611 153,93.5C 150.697,89.3317 151.197,85.665 154.5,82.5 Z"/></g>
<g><path style="opacity:1" fill="#ea07a9" d="M 192.5,81.5 C 199.685,81.8482 202.519,85.5149 201,92.5C 198.839,96.1241 195.672,97.2907 191.5,96C 186.057,90.8089 186.391,85.9755 192.5,81.5 Z"/></g>
<g><path style="opacity:1" fill="#1e181a" d="M 193.5,82.5 C 197.348,83.1759 199.015,85.5092 198.5,89.5C 198.027,95.9334 195.527,96.9334 191,92.5C 189.863,88.5369 190.697,85.2036 193.5,82.5 Z"/></g>
<g><path style="opacity:1" fill="#5a4e56" d="M 67.5,85.5 C 69.5611,84.3183 71.0611,84.9849 72,87.5C 72.9147,86.6721 73.5814,85.6721 74,84.5C 74.3742,85.4162 74.8742,86.2496 75.5,87C 77.1012,87.2734 78.6012,87.7734 80,88.5C 80.8893,87.1118 81.3893,87.2785 81.5,89C 81.3552,89.772 81.0219,90.4387 80.5,91C 76.4337,91.0034 72.4337,91.17 68.5,91.5C 66.8333,90.6667 65.1667,89.8333 63.5,89C 64.5908,87.4499 65.9242,86.2832 67.5,85.5 Z"/></g>
<g><path style="opacity:1" fill="#e309a4" d="M 128.5,74.5 C 131.85,74.335 135.183,74.5017 138.5,75C 143.115,76.077 144.615,78.9103 143,83.5C 141.764,84.3992 140.93,85.5659 140.5,87C 142.055,90.5609 144.388,93.5609 147.5,96C 146.167,96.6667 144.833,96.6667 143.5,96C 141.257,93.5122 139.257,90.8456 137.5,88C 136.207,87.51 134.873,87.3433 133.5,87.5C 133.337,89.8568 133.503,92.1902 134,94.5C 134.75,95.1258 135.584,95.6258 136.5,96C 133.833,96.6667 131.167,96.6667 128.5,96C 129.416,95.6258 130.25,95.1258 131,94.5C 131.499,88.5092 131.666,82.5092 131.5,76.5C 129.821,76.7148 128.821,76.0481 128.5,74.5 Z"/></g>
<g><path style="opacity:1" fill="#25191f" d="M 133.5,76.5 C 139.756,75.9136 141.756,78.5803 139.5,84.5C 137.604,85.4656 135.604,85.7989 133.5,85.5C 133.5,82.5 133.5,79.5 133.5,76.5 Z"/></g>
<g><path style="opacity:1" fill="#794267" d="M 91.5,90.5 C 93.1401,91.3201 94.8068,92.1534 96.5,93C 96,93.5 95.5,94 95,94.5C 93.3732,93.4677 92.2066,92.1344 91.5,90.5 Z"/></g>
<g><path style="opacity:1" fill="#65495c" d="M 81.5,94.5 C 84.4602,97.4466 86.6268,100.78 88,104.5C 85.0651,101.621 82.8985,98.2877 81.5,94.5 Z"/></g>
<g><path style="opacity:1" fill="#b21e87" d="M 23.5,82.5 C 23.269,91.7462 25.6023,100.246 30.5,108C 29.8524,109.44 29.5191,110.94 29.5,112.5C 23.4071,103.267 21.4071,93.2667 23.5,82.5 Z"/></g>
<g><path style="opacity:1" fill="#b81f8c" d="M 93.5,122.5 C 94.2389,122.369 94.9056,122.536 95.5,123C 93.9975,125.544 92.1642,127.71 90,129.5C 89.5,129.167 89,128.833 88.5,128.5C 89.5096,125.859 91.1763,123.859 93.5,122.5 Z"/></g>
</svg>
